<?xml version="1.0" encoding="UTF-8"?>
<!-- Generator: visioncortex VTracer 0.6.12 -->
<svg version="1.1" xmlns="http://www.w3.org/2000/svg" width="971" height="257" viewBox="0 0 971 257">
<path d="M0 0 C320.43 0 640.86 0 971 0 C971 84.81 971 169.62 971 257 C650.5699999999999 257 330.14 257 0 257 C0 172.19 0 87.38 0 0 Z " fill="#FEFEFE" transform="translate(0,0)"/>
<path d="M0 0 C0.3300000000000409 0 0.6599999999999682 0 1 0 C1 26.72999999999999 1 53.46000000000001 1 81 C-29.53777587166485 81.28114567878339 -29.53777587166485 81.28114567878339 -44.607924461364746 81.35177707672119 C-52.76275037386267 81.39058731897717 -60.9170758237625 81.43987887697216 -69.071533203125 81.528076171875 C-75.52719368156795 81.59786624520439 -81.98247680416443 81.64301181107874 -88.43850404024124 81.65861946344376 C-91.85689498575198 81.66774284552702 -95.27420644785013 81.68916643853953 -98.69225120544434 81.74011039733887 C-102.50927555849455 81.79080518784696 -106.32405151857802 81.79792826331999 -110.141357421875 81.794677734375 C-110.70743965148927 81.8072611999512 -110.70743965148927 81.8072611999512 -113.57215881347656 81.87094116210938 C-121.08834148696576 81.80151842680482 -121.08834148696576 81.80151842680482 -123.75315284729004 79.45865058898926 C-125.08662414550781 77.57557678222659 -125.08662414550781 77.57557678222659 -126.08168506622314 75.69900608062744 C-128.38117483074666 71.44464088567432 -133.93024264060364 69.29684615601823 -138 67 C-138.91910156250003 66.46117187499999 -139.83820312499995 65.92234374999998 -140.78515625 65.3671875 C-154.8529899505986 57.6656774410753 -171.00632384007645 56.21679739997438 -186.6826171875 54.325439453125 C-189.1459409230406 53.97950492515665 -191.56569852229484 53.509436044083714 -194 53 C-194 52.34 -194 51.68000000000001 -194 51 C-183.16869669295204 50.93040570032187 -172.33744682569966 50.87714079340125 -161.50596523284912 50.844563484191895 C-156.47614567110077 50.82892584770545 -151.44647939868548 50.807722258883075 -146.416748046875 50.773681640625 C-141.56029318302808 50.741020445537515 -136.70398551944868 50.72313267760052 -131.8474292755127 50.71536827087402 C-129.99711859557692 50.70983690173415 -128.14681572108975 50.69903546712831 -126.29656791687012 50.682809829711914 C-123.69940833010594 50.660945622097785 -121.10285245156388 50.65803681535181 -118.505615234375 50.659423828125 C-118.12546768188474 50.654030914306645 -118.12546768188474 50.654030914306645 -116.20169067382813 50.626739501953125 C-111.06717292212556 50.65629613550536 -107.61394237549507 51.742666180331355 -103 54 C-101.00801295227723 54.690240571213565 -99.00761621946344 55.356632640094716 -97 56 C-95.78183593749998 56.4137890625 -94.56367187499995 56.827578125 -93.30859375 57.25390625 C-92.01824039597534 57.6901373838987 -90.72787567683702 58.12633490161079 -89.4375 58.5625 C-88.79103515625002 58.783574218750005 -88.14457031250004 59.00464843750001 -87.478515625 59.232421875 C-76.01117972382906 63.09375268200671 -61.58164848949616 63.99367189292971 -50 60 C-47.4375 57.875 -47.4375 57.875 -46 56 C-57.59040147203655 51.23710133512435 -69.66808332390337 49.69076829666395 -82 48 C-79.275859960675 45.27585996067501 -76.94645611092403 45.15417102382392 -73.1875 44.3125 C-51.32702638558567 39.11444786310122 -30.163927647593255 31.862345338215505 -13 17 C-12.292304687500064 16.3928515625 -11.584609375000014 15.785703124999998 -10.85546875 15.16015625 C-6.6746036112848515 11.288984825263753 -3.930240961139816 6.904255842044847 -1.1640625 1.94140625 C-0.7799218750000136 1.300742187499992 -0.3957812500000273 0.6600781250000125 0 0 Z " fill="#FEFEFE" transform="translate(970,176)"/>
<path d="M0 0 C3.827038344396442 3.1030040630241373 5.683590815133925 6.1023579912261 6.22265625 11.0390625 C6.436567646252797 16.451950874745037 5.785940897156706 21.281376856845213 3 26 C-0.16391291822776566 29.40015174945546 -3.3036723491104567 31.858639362425862 -8 32.25 C-8.990000000000009 32.16749999999999 -9.980000000000018 32.08500000000001 -11 32 C-11.659999999999968 31.00999999999999 -12.32000000000005 30.02000000000001 -13 29 C-12.541093749999959 28.659687500000004 -12.082187500000032 28.319375000000008 -11.609375 27.96875 C-6.284835971257166 23.762811607547718 -2.653981293912011 19.510984606870338 -1.65625 12.62890625 C-1.5191316676095994 9.149528565594721 -1.5262205268313664 6.8798761644561495 -3.203125 3.765625 C-5 2 -5 2 -7.41796875 1.46875 C-18.01817176154168 1.58835736825435 -23.822454480107126 5.128415791879888 -31.484375 12.33203125 C-47.39297801560133 29.2040434544343 -54.66457539701446 50.924692709799814 -54.47509765625 73.82177734375 C-54.215126464122704 82.37784580508765 -53.029258720094504 89.17356793251219 -47.625 96 C-40.06062880248214 101.76333043620406 -33.235684172834226 101.82242018734553 -24 101 C-15.43806113092819 99.24794301134824 -8.55811474998336 94.6300796438536 -2 89 C-1.2774804687500136 88.42950927734375 -0.5549609375000273 87.85901855468751 0.189453125 87.271240234375 C7.600726259342991 80.83349467233447 9.342291119007427 73.67437937945783 11.25 64.4375 C11.575235884242147 62.99227014640391 11.904443448592588 61.54792854434109 12.237548828125 60.1044921875 C12.883161928936829 57.30530801974389 13.51798940541039 54.504083313688696 14.14501953125 51.70068359375 C21.602081993854767 19.423655378968775 21.602081993854767 19.423655378968775 33 12.0625 C36.321847502511105 10.886012342860653 37.74798620970137 10.681616030959987 41 12 C43.13113143953001 13.763694984438644 43.85631696799112 15.157176361021357 44.3203125 17.87890625 C44.948441916252364 29.58305103950184 38.58720598279774 38.8900342791095 32 48 C31.446992187499973 48.766992187499994 30.893984374999945 49.533984375 30.32421875 50.32421875 C27.362049474343166 54.34266544178253 24.232700901455473 58.19682246887588 21 62 C21.531093749999968 61.590078125000005 22.062187499999936 61.180156249999996 22.609375 60.7578125 C23.315781249999986 60.21898437499999 24.022187499999973 59.68015625000001 24.75 59.125 C25.446093750000045 58.59132812499999 26.142187499999977 58.05765625000001 26.859375 57.5078125 C30.969643593810133 54.61262330800963 34.070653565061775 53.46412642569237 39.09375 53.6328125 C41 54 41 54 43.5 55.9375 C47.128106733788286 63.34488458148439 44.503930011674356 70.84060350270397 42.3359375 78.327392578125 C41.24109590592957 82.24882040304058 40.790339685916706 85.07430992410721 42 89 C47.18565062923233 88.32854899518424 49.17303152506224 86.46315923245021 52.4208984375 82.5224609375 C55.29454401662201 77.93209202539592 56.116063865794445 72.88542802048073 57.125 67.625 C57.54531092185334 65.46740393448586 57.98455336016764 63.31338403667439 58.4453125 61.1640625 C58.62594238281247 60.2199853515625 58.806572265624936 59.275908203125 58.99267578125 58.30322265625 C60 56 60 56 62.42138671875 54.65380859375 C65.33551265786355 53.914930609945216 67.13497382389176 54.18142109254049 70 55 C69.66999999999996 56.97999999999999 69.34000000000003 58.96000000000001 69 61 C69.21785156250007 60.764746093750006 69.21785156250007 60.764746093750006 70.3203125 59.57421875 C73.890591446489 55.841654396852476 76.99355949183985 52.66881350272004 82 51 C85.875 51.3125 85.875 51.3125 89 52 C89.92091737522969 54.57856865064326 90.18506902340675 55.59432870069239 89.0234375 58.140625 C88.68570312500003 58.75421875000001 88.34796875000006 59.3678125 88 60 C87.34773437499996 59.95359375000001 86.69546875000003 59.90718749999999 86.0234375 59.859375 C81.7927134391091 59.6846548322936 78.68986141597634 59.70813555477923 74.75 61.375 C67.7624846450135 68.044901020669 65.0503283596845 76.0015140351515 62.911865234375 85.197998046875 C62.018965140143564 88.73452740429792 61.40903638175655 90.67096442477 58.5234375 92.9921875 C55.812491748328625 94.07488719648796 53.89176126487064 94.24786525127462 51 94 C51 92.68 51 91.36000000000001 51 90 C50.515312499999936 90.32999999999998 50.515312499999936 90.32999999999998 48.0625 92 C43.79410716675511 94.42049105787669 39.816475965118684 95.05999664097209 35 94 C32.4375 91.9375 32.4375 91.9375 31 89 C30.634333048074154 83.58812911149704 31.551355495425923 79.08116680509258 33 73.9375 C34.320447090849825 69.22225481409367 35.24648604361346 64.93742356113162 35 60 C30.49123343630356 60 28.091898831696994 61.42316399338665 24.875 64.375 C18.545519346854462 71.13850218364695 16.867200645237062 79.89047177687519 14.80859375 88.6875 C13.919884123407655 91.22912366638951 13.127441805628337 92.37343648356082 11 94 C7.8125 94.6875 7.8125 94.6875 5 95 C4.312924446521038 92.50935111863885 4 90.6211370842777 4 88 C3.340000000000032 88.70125000000002 2.6800000000000637 89.4025 2 90.125 C-8.78805190780804 100.82239600942313 -22.29206460873445 107.21244241423153 -37.5 107.4375 C-46.111333910555686 107.38484279329646 -54.08948096735264 105.74616546223962 -60.625 99.65625 C-66.71679367594857 92.31840761760736 -69.18366219762231 84.36844811300048 -70 75 C-70.07089843749998 74.2639453125 -70.14179687499995 73.527890625 -70.21484375 72.76953125 C-71.13358969850992 53.181867627768156 -61.55066272091517 30.954672982655566 -48.625 16.6875 C-36.71653604330049 4.026901190059803 -17.614596985142953 -9.670759129098116 0 0 Z " fill="#98B8AB" transform="translate(671,59)"/>
<path d="M0 0 C4.319401556033739 0.5931118554553905 8.083739917247641 1.616958841240745 12.125 3.25 C13.138203125000018 3.6470312499999977 14.15140624999998 4.0440624999999955 15.1953125 4.453125 C19.921977561037096 7.060032192438285 22.458171223399717 10.900104815860573 24 16 C25.76311002819392 26.226038163524834 25.191448899967128 35.88411534568746 23 46 C12.862380131519416 49.870727586147126 0.23309167920103846 49.114678963432766 -9.73046875 44.82421875 C-13.31881365518825 43.06888119897718 -16.67455305314388 41.2169646312374 -20 39 C-19.484375 39.47437500000001 -18.96875 39.94874999999999 -18.4375 40.4375 C-16.206827651426636 44.41391592571773 -16.8926687607198 47.68210460154896 -18 52 C-21.917195782289014 62.421562732415424 -30.989239757049774 69.93810121925978 -39.89453125 76.13671875 C-42.73120349034434 77.29980699696864 -44.114065542543216 76.98272960723875 -47 76 C-57.59425499227329 69.12425834938554 -67.32055856471938 60.1101008799541 -70.9375 47.8125 C-71.01519669080025 44.31614891398863 -70.15503957111069 42.71375353399122 -68 40 C-67.34 40 -66.68 40 -66 40 C-65.7525 39.44312500000001 -65.505 38.88624999999999 -65.25 38.3125 C-64 36 -64 36 -62.1875 33.875 C-59.15544283799167 29.890010587074755 -57.137855665403066 25.512277326567954 -55 21 C-54.54560546875 21.017402343750007 -54.54560546875 21.017402343750007 -52.24609375 21.10546875 C-34.48640999806764 21.487985015426233 -17.936404950833037 18.11164894545243 -4.55078125 5.67578125 C-2.88529926887594 3.876053869893667 -1.4335161126025469 1.9878667543340214 0 0 Z " fill="#98B6AB" transform="translate(163,154)"/>
<path d="M0 0 C12.106734537457925 6.836744209388006 24.387853356727703 17.540628680319443 28.9375 31 C29.340412771147385 32.65555824554797 29.69566219562745 34.3235184741891 30 36 C30.149531249999995 36.8133984375 30.29906249999999 37.626796875 30.453125 38.46484375 C31.11215546198804 45.417615123973725 28.260979287622604 49.31260363406613 24.04296875 54.65234375 C22 57.00000000000001 22 57.00000000000001 20.3671875 58.51171875 C18.577201230045915 60.46024666100716 17.86475828543348 62.404813960262224 16.9375 64.875 C16.777011718750003 65.2965234375 16.777011718750003 65.2965234375 15.96484375 67.4296875 C15.805644531249982 67.8537890625 15.805644531249982 67.8537890625 15 70 C14.336919953416952 71.66809684192665 13.671293706433602 73.33519160804468 13 75 C11.790859374999997 74.855625 10.581718749999993 74.71125 9.3359375 74.5625 C0.3640445424356358 73.533857764394 -8.273883339192665 72.78564766144682 -17.3125 73.22265625 C-20 73 -20 73 -21.7578125 71.83203125 C-23.32370645131138 69.52258388155649 -24.05028389585756 67.28890600010612 -24.875 64.625 C-26.86136157554813 58.8706166570953 -29.544881199826136 55.97773458902895 -34.25 52.1875 C-38.24597867606879 47.19252665491402 -37.12778704688756 39.133778250603314 -37 33 C-36.34 33 -35.68000000000001 33 -35 33 C-35.060585937499994 32.1092578125 -35.121171875 31.218515625000002 -35.18359375 30.30078125 C-34.72325096559952 22.02440565811894 -26.551624489045906 15.211256913756188 -21.015625 9.6171875 C-19 8 -19 8 -16 8 C-15.670000000000002 7.01 -15.340000000000003 6.02 -15 5 C-12.890625 3.3593750000000018 -12.890625 3.3593750000000018 -10.25 1.75 C-9.388906250000005 1.20859375 -8.527812499999996 0.6671875 -7.640625 0.109375 C-4.470988345458267 -1.2222474998370583 -3.2169552444480587 -1.1216008776205577 0 0 Z " fill="#DFE5E4" transform="translate(123,1)"/>
<path d="M0 0 C2.1815262061794556 4.363052412358968 1.5100536594599134 9.235960758258102 0.19921875 13.76953125 C-4.213922373597711 25.098110010575624 -10.880216214547772 34.7651252394124 -18.9375 43.75 C-23.539921146601102 48.983103117290796 -25.84060840686493 52.96684595291521 -26 60 C-26.04124999999999 61.281328125000016 -26.082499999999982 62.56265625 -26.125 63.8828125 C-26.329596752339114 74.34080649532177 -26.329596752339114 74.34080649532177 -25 77 C-21.752167857696406 76.70474253251786 -19.568338723929628 76.43245508215517 -16.94140625 74.43359375 C-14.451465438903483 71.3124003389072 -13.660424600722877 68.10254956401013 -12.6875 64.3125 C-10.017272104188294 54.99352032895335 -5.876083608038414 47.82320167844962 2.8203125 42.93359375 C8.562061796572891 40.47431403336752 13.908264171846668 39.506821413347836 20 41 C20.230742187500027 40.0654296875 20.461484374999998 39.130859375 20.69921875 38.16796875 C21.584477364206805 34.59375437634674 22.482541541160458 31.022849600903868 23.3837890625 27.45263671875 C23.803214829851754 25.783242400677253 24.21909475034539 24.112954098099237 24.6318359375 22.44189453125 C25.26652199656047 19.875618251350204 25.913466040919104 17.312680477608154 26.5625 14.75 C26.759968261718768 13.940710449218756 26.95743652343748 13.131420898437497 27.160888671875 12.297607421875 C29.07319601269114 4.838112957390408 29.07319601269114 4.838112957390408 32 2 C35.1875 1.25 35.1875 1.25 38 1 C39.401157727958434 5.590744536917171 38.4312445365465 9.170108364656556 37.12109375 13.6328125 C36.913670501708964 14.374572296142574 36.706247253417985 15.116332092285148 36.49253845214844 15.880569458007813 C36.04710087522517 17.47206517702037 35.59710959247843 19.06229210959917 35.14300537109375 20.651336669921875 C33.95517994050334 24.81612453770309 32.806974889197704 28.99173351123561 31.66015625 33.16796875 C31.4305419921875 34.002661895751956 31.200927734375 34.83735504150391 30.96435546875 35.69734191894531 C28.90527697512391 43.23675613772744 27.069832765760395 50.80781106458255 25.375 58.4375 C25.12806396484376 59.53014160156249 24.881127929687523 60.62278320312501 24.626708984375 61.74853515625 C21.972950065668783 73.94590013133757 21.972950065668783 73.94590013133757 24 78 C28.36327242278827 76.98528548307252 31.003519867284126 75.57643518922711 33.815673828125 72.05078125 C36.83711570097222 66.81884727104378 37.48374849425193 60.35623925070644 38.671875 54.501953125 C38.90390624999998 53.45587890625001 39.13593750000001 52.4098046875 39.375 51.33203125 C39.568359375 50.38046142578125 39.76171875 49.4288916015625 39.9609375 48.448486328125 C41.32579845136928 45.232276158650734 42.87022714135003 44.43279719164485 46 43 C48.8125 42.8125 48.8125 42.8125 51 43 C51 45.31 51 47.620000000000005 51 50 C51.65999999999997 49.0925 52.31999999999999 48.185 53 47.25 C56.04614568864781 43.61706137416222 59.46296662857935 41.40010014196184 64 40 C69.28846153846155 40.28846153846155 69.28846153846155 40.28846153846155 71 42 C71.3125 44.375000000000014 71.3125 44.375000000000014 71 47 C69.4375 48.875 69.4375 48.875 67 50 C65.86562500000002 49.83500000000001 64.73124999999999 49.67 63.5625 49.5 C60 49 60 49 57.4375 49.9375 C50.07824673366298 56.16456045613134 47.62847518671714 63.273943539182284 45.078125 72.29296875 C42.677124183006526 80.54858387799564 42.677124183006526 80.54858387799564 39 83 C35.81250000000006 83.125 35.81250000000006 83.125 33 83 C33.329999999999984 81.35 33.65999999999997 79.69999999999999 34 78 C33.07187499999998 78.639375 32.14375000000001 79.27875 31.1875 79.9375 C26.660087195170888 82.86700240312473 22.365401731594716 83.98239750015114 17 83 C14.5 80.6875 14.5 80.6875 13 78 C13 77.00999999999999 13 76.01999999999998 13 75 C12.492109374999984 75.482109375 11.984218749999968 75.96421874999999 11.4609375 76.4609375 C6.9391447454802915 80.61014807998998 3.409511554912797 83.79043905481603 -2.97265625 84.09375 C-6.107503056040628 83.95312135823369 -8.208244085708543 83.68873225315474 -10.62109375 81.58984375 C-12 79.9375 -12 79.9375 -14 77 C-14.568476562499995 77.43312500000002 -15.136953124999991 77.86624999999998 -15.72265625 78.3125 C-19.454653509776733 81.00402390020625 -22.155173674942148 82.85919561249034 -26.75 83.625 C-30.761554686023715 82.85354717576467 -32.336155083049164 82.12050404557095 -35 79 C-41.67384752386101 63.892534212155425 -33.29423146229715 42.849702039388276 -28.08251953125 28.46826171875 C-23.85546817842402 17.630796907860855 -19.0636480026742 5.603507527178465 -9 -1 C-5.209805336777663 -2.2633982210741124 -3.6247761581888653 -1.4971901522954028 0 0 Z " fill="#98B7AB" transform="translate(372,70)"/>
<path d="M0 0 C-0.5217995989332849 4.982344557556544 -2.1518348677519157 9.261225176295063 -3.93359375 13.895751953125 C-9.503761937473541 28.409007794052485 -13.13800665738853 43.02844237988745 -16.38671875 58.188720703125 C-16.884020597381948 60.46835078775993 -17.43410547385878 62.736421895435114 -18 65 C-13.050000000000011 64.67 -8.100000000000023 64.34 -3 64 C-3.1649999999999636 64.495 -3.1649999999999636 64.495 -4 67 C-7.631385456885653 68.72490809202068 -10.764846072999262 69.0976797454845 -14.71875 69.05078125 C-15.120615234375009 69.04711547851562 -15.120615234375009 69.04711547851562 -17.154296875 69.028564453125 C-17.76337890625001 69.01913818359375 -18.372460937500023 69.0097119140625 -19 69 C-19.058882420017653 73.10410467522875 -19.093889212686918 77.20809827377082 -19.125 81.3125 C-19.133378906250016 81.88645507812501 -19.133378906250016 81.88645507812501 -19.17578125 84.791015625 C-19.2335793455606 94.99237949144953 -19.24909530867501 106.0099750603278 -12 114 C-8.186700016369628 116.37651689407514 -4.394729618176825 116.60285555398451 0 116 C2.875 114.5 2.875 114.5 5 113 C5.659999999999968 113 6.319999999999993 113 7 113 C5.260263571877886 117.14057269893067 3.3359654799021428 118.4133575028294 -0.66015625 120.234375 C-7.362766437055029 122.42754961880263 -13.739712861605142 121.45681419512817 -19.9609375 118.32421875 C-26.779815765878652 113.89586677273397 -29.705969744004392 107.45443927978155 -31.52783203125 99.775146484375 C-32.056602371437634 96.66732204956992 -32.1125961476979 93.75778716426231 -32.09765625 90.60546875 C-32.09604492187498 90.00444335937499 -32.09604492187498 90.00444335937499 -32.087890625 86.962890625 C-32.083701171874964 86.33995117187499 -32.083701171874964 86.33995117187499 -32.0625 83.1875 C-32.057988281250005 81.92228515624998 -32.05347656250001 80.6570703125 -32.048828125 79.353515625 C-32.037062619999006 76.23565679972799 -32.019127744483114 73.11782235074827 -32 70 C-37.610000000000014 70 -43.22000000000003 70 -49 70 C-49.81082031250003 71.52109375 -50.621640625 73.0421875 -51.45703125 74.609375 C-67.78298587309683 104.68989680024114 -67.78298587309683 104.68989680024114 -83.5 111.6875 C-84.4178125 112.10386718749999 -85.335625 112.520234375 -86.28125 112.94921875 C-93.7112179247552 115.82085865195279 -101.7513121677454 116.19081601654045 -109.140625 113.04296875 C-112.3662147506441 111.23365685205465 -114.89898826917602 109.05268951830521 -117 106 C-117.875 102.625 -117.875 102.625 -118 100 C-115.17462935546888 101.19534911884008 -113.3292492623001 102.56124041317747 -110.9375 104.5625 C-106.45545128428643 108.28164680665594 -102.62937766818783 108.4553270044251 -96.98828125 108.41796875 C-91.85983478912453 107.7006566306357 -88.0883219469822 105.04182315509257 -84 102 C-83.1788671875 101.4031640625 -82.357734375 100.806328125 -81.51171875 100.19140625 C-78.59722715036395 97.64859165062859 -76.39441812264408 94.8343201277334 -74.1875 91.6875 C-73.7609814453125 91.0866357421875 -73.33446289062499 90.485771484375 -72.89501953125 89.86669921875 C-68.30601129945723 83.24685432060045 -64.60508472515573 76.19002931218209 -61 69 C-64.21119681758262 69.58954510998817 -67.41825313476636 70.19924868710761 -70.625 70.8125 C-71.5286328125 70.97814453125 -72.43226562500001 71.1437890625 -73.36328125 71.314453125 C-79.70591908676664 72.54131372846216 -85.61643753930505 73.8858437958559 -90 79 C-90.495 78.83500000000001 -90.495 78.83500000000001 -93 78 C-91.00078667000389 73.00196667500971 -87.67561577846189 71.29774187667996 -83.01953125 69.13671875 C-74.98530803626579 66.1121922879086 -66.57887632973654 64.4852674202158 -58 65 C-57.77312499999999 64.3490234375 -57.546249999999986 63.698046875 -57.3125 63.02734375 C-55.55648836969851 58.977019305108186 -53.31158284450845 55.317333212043366 -51 51.5625 C-50.51160644531251 50.76771240234375 -50.02321289062502 49.972924804687494 -49.52001953125 49.154052734375 C-18.684127148625407 -0.5049764094222908 -18.684127148625407 -0.5049764094222908 0 0 Z " fill="#98B7AB" transform="translate(339,51)"/>
<path d="M0 0 C1.3199999999999932 0.3299999999999983 2.6400000000000006 0.6599999999999966 4 1 C2.019999999999996 9.909999999999997 0.04000000000000625 18.819999999999993 -2 28 C-0.3499999999999943 27.67 1.2999999999999972 27.340000000000003 3 27 C3 27.659999999999997 3 28.319999999999993 3 29 C1.6800000000000068 29.33 0.35999999999999943 29.659999999999997 -1 30 C-2.2840460246899 35.90661171357357 -1.9731339925888989 41.24167018489362 0 47 C2.202653522082443 49.866641830188456 2.930463019530592 49.987035478217564 6.6875 50.6875 C7.780625000000001 50.790625000000006 8.873750000000001 50.89375000000001 10 51 C6.245434332948221 53.50304377803451 4.4525406566098695 53.45280074473999 0 53 C-3.318495672292329 51.30944560090768 -5.386470172980395 50.02254971169933 -7.3125 46.8125 C-8.685954016317822 41.19382447869984 -9.641880152945177 35.65536497125561 -8 30 C-10.977286179035872 29.817717172712094 -12.346601268536432 29.764170453838886 -15 31 C-17.011945745634534 33.60889668115247 -18.593845244039187 36.348796513192354 -20.25 39.1953125 C-23.37461451362286 44.20306522495807 -27.151383069281636 47.63250619600285 -32.8125 49.4375 C-36 50 -36 50 -38 49 C-37.00999999999999 50.97999999999999 -36.02000000000001 52.96000000000001 -35 55 C-39.31223370127378 60.50181541197 -44.240465577459545 61.813140732393435 -51 63 C-56.49364054270193 63.54850701206385 -60.83353068949276 63.045060768742445 -66 61 C-67.53996503206268 60.49478340176188 -69.08176615353202 59.995141804159914 -70.625 59.5 C-78.32339791356185 57.01490312965723 -78.32339791356185 57.01490312965723 -81 53 C-82.32183461375527 52.31081535413168 -83.65624617819654 51.64540521272363 -85 51 C-91.23317952796563 45.88559628474616 -97.49424974816303 38.77448309019974 -99.9375 31.02734375 C-100.06091160213403 25.04959427163317 -94.89876450754517 21.11503780106716 -91 17 C-84.16554075194801 10.200000210341543 -76.44403045625347 3.347386447454639 -66.63671875 1.6953125 C-61.92590319520956 2.239673408553557 -59.120338276233326 5.4229000957943185 -55.75390625 8.5546875 C-53.08744514431533 10.922353673274614 -50.57885344753123 12.470704515400826 -47.4375 14.125 C-44.18455299524591 16.02815500437123 -43.141427320644475 16.747451213134866 -41.25 20.125 C-40.89677689282679 25.599958161184716 -41.85922774444791 30.655920741298303 -43 36 C-51.758615623073005 35.20376221608427 -60.35560507598377 33.5780238724668 -69 32 C-65.0649535084767 33.340652378129136 -61.12658354443288 34.67126070751894 -57.1875 36 C-56.627724609375 36.190781249999986 -56.627724609375 36.190781249999986 -53.794921875 37.15625 C-52.72177734375 37.517187500000006 -51.6486328125 37.87812500000001 -50.54296875 38.25 C-49.55321044921875 38.58515625000001 -48.5634521484375 38.920312499999994 -47.543701171875 39.265625 C-45 40 -45 40 -42 40 C-41.34 41.650000000000006 -40.68000000000001 43.30000000000001 -40 45 C-36.73476712018642 45.39982443426288 -34.1040668615089 45.60922082632942 -31.15234375 43.98046875 C-26.288464550516778 40.10005523480788 -23.75893744110695 35.5178748822139 -21 30 C-22.650000000000006 30.495000000000005 -22.650000000000006 30.495000000000005 -31 33 C-27.994860761766347 29.994860761766347 -27.441213435433383 29.67969429357447 -23.625 28.81640625 C-18.956913558032454 27.35951762136814 -17.365966794770188 25.435445067436447 -15.10888671875 21.197021484375 C-14.925920410156252 20.824200439453122 -14.925920410156252 20.824200439453122 -14 18.9375 C-10.089189380782031 11.622778192756869 -5.948428843265788 5.8478515439835235 0 0 Z " fill="#A4CCB4" transform="translate(106,93)"/>
<path d="M0 0 C0.9126562499999977 0.2681249999999977 1.8253124999999955 0.5362500000000026 2.765625 0.8125 C12.426928583077597 3.9801405190418393 18.664294142340964 8.217411324806918 23.609375 17.2109375 C30.985237614666445 32.00410015975237 30.985237614666445 32.00410015975237 29 38 C26.6015625 40.3359375 26.6015625 40.3359375 23.625 42.375 C22.647890625000002 43.063359375000005 21.670781250000005 43.75171875000001 20.6640625 44.4609375 C18 46 18 46 15 46 C13.73828125 44.59375 13.73828125 44.59375 12.3125 42.5 C6.4479113866082685 34.557307160558594 -0.9551321211388029 27.8801793652392 -8 21 C-8.329999999999998 21.659999999999997 -8.659999999999997 22.32 -9 23 C-8.340000000000003 23 -7.68 23 -7 23 C-5.194548140258348 25.131810487787817 -3.49377564673766 27.273438140989867 -1.8125 29.5 C-0.820661526107088 30.789032538236 0.17282419337880128 32.07679932072446 1.16796875 33.36328125 C1.6518505859374955 33.989282226562494 2.135732421874991 34.615283203125 2.63427734375 35.26025390625 C6.157800243121983 39.74874589425943 9.93601788615453 43.99649381046771 14 48 C12.390596539343889 51.439385060589956 10.446109408090607 54.547866509509106 8.3125 57.6875 C7.990878906250003 58.17412109375 7.990878906250003 58.17412109375 6.36328125 60.63671875 C4 63 4 63 0.6953125 64.04296875 C-3.7048857559779407 63.99180365400025 -6.695511664456291 62.75280674525311 -10.4375 60.625 C-11.094196777343754 60.259228515625 -11.7508935546875 59.893457031249994 -12.427490234375 59.5166015625 C-22.59220876134753 53.58875629742052 -29.25559899117667 44.28925929702211 -32.59765625 32.97705078125 C-34.01926537775975 27.249024641473312 -34.30372754578597 21.758166263563552 -34.25 15.875 C-34.257734375 15.020351562499997 -34.26546875 14.165703125 -34.2734375 13.28515625 C-34.25762903767192 8.139501762208646 -33.66387391262204 3.8727736012502447 -32 -1 C-22.05706611194593 -3.441781406693046 -9.797058357703612 -2.8930910586507324 0 0 Z " fill="#A3CBB3" transform="translate(66,40)"/>
<path d="M0 0 C2.5318646573366834 5.241552584921081 2.332644532471761 10.619655123486062 2.3125 16.3125 C2.32861328125 17.211621093749997 2.3447265625 18.1107421875 2.361328125 19.037109375 C2.3658176312194996 25.246096476551628 1.2586553239050318 30.241080877150438 -1 36 C-1.1959375000000136 36.5878125 -1.1959375000000136 36.5878125 -2.1875 39.5625 C-2.4556249999999977 40.36687499999999 -2.7237499999999955 41.17125 -3 42 C-3.391874999999999 42.03093749999999 -3.391874999999999 42.03093749999999 -5.375 42.1875 C-6.241250000000008 42.455625 -7.107500000000016 42.723749999999995 -8 43 C-9.125 45.49999999999997 -9.125 45.49999999999997 -10 48 C-10.990000000000009 48.33 -11.97999999999999 48.66 -13 49 C-13.329999999999984 49.99000000000001 -13.659999999999997 50.97999999999999 -14 52 C-13.670000000000016 52.16499999999999 -13.670000000000016 52.16499999999999 -12 53 C-14.395093383030485 55.89932356893162 -16.312452427485994 56.501682760471084 -20 57 C-20.329999999999984 57.99000000000001 -20.659999999999997 58.97999999999999 -21 60 C-24.849351729324212 62.29096365897496 -29.521671749433352 64.61720818500702 -34.0390625 63.4921875 C-39.32295806848029 60.04197258542155 -42.66431956037346 54.22150585534247 -46 49 C-45.670000000000016 48.83500000000001 -45.670000000000016 48.83500000000001 -44 48 C-43.72285156250001 47.43410156249999 -43.445703124999994 46.86820312500001 -43.16015625 46.28515625 C-41.637975125642555 43.286920702023195 -39.6159023833809 40.9977193895447 -37.4375 38.4375 C-36.54248980622302 37.37931115210898 -35.64797024063466 36.32070716609154 -34.75390625 35.26171875 C-34.299028320312516 34.72466308593749 -33.844150390625 34.187607421875 -33.37548828125 33.63427734375 C-31.18180820987436 31.027870812371134 -29.02927805766018 28.38907597237929 -26.875 25.75 C-26.129921875000008 24.837343750000002 -25.384843750000016 23.924687500000005 -24.6171875 22.984375 C-24.08351562499999 22.329531250000002 -23.549843750000008 21.674687500000005 -23 21 C-25.862931732095802 22.30354763972022 -27.328071529266055 23.328071529266055 -29.625 25.625 C-30.408749999999998 26.408749999999998 -31.192499999999995 27.192499999999995 -32 28 C-32.66 28 -33.31999999999999 28 -34 28 C-34 28.659999999999997 -34 29.319999999999993 -34 30 C-34.66 30 -35.31999999999999 30 -36 30 C-36 30.659999999999997 -36 31.319999999999993 -36 32 C-37.13025633538615 33.130256335386164 -38.26534450045125 34.25601831652244 -39.421875 35.359375 C-42.58384987054504 38.64657659809137 -45.25255606245227 42.36577300479999 -48 46 C-51.62276314893069 44.67444190287793 -54.63505348196773 43.0565304452162 -57.8125 40.875 C-58.6026953125 40.33617187499999 -59.39289062500001 39.79734375000001 -60.20703125 39.2421875 C-60.798710937500005 38.83226562499999 -61.39039062500001 38.42234375000001 -62 38 C-61.40988210984929 27.771289904054242 -57.065575619985964 16.545614727925553 -50 9 C-46.53531914885269 6.448579340258895 -42.94964107894347 4.685385103725558 -39 3 C-38.07832031250001 2.586210937499999 -37.156640624999994 2.1724218749999977 -36.20703125 1.74609375 C-25.85972214927176 -2.176862276299879 -10.584480332011879 -3.528160110670626 0 0 Z " fill="#A4CCB4" transform="translate(204,40)"/>
<path d="M0 0 C1.1343749999999773 0.020624999999995453 2.2687499999999545 0.041250000000005116 3.4375 0.0625 C2.930753433843279 6.2701454354200195 1.4455396005454304 12.077903829020968 -0.2783203125 18.045166015625 C-0.7473939046336682 19.706573968303744 -1.1602557066144072 21.38365934392212 -1.5625 23.0625 C0.10092837037484514 24.725928370374874 2.2200708960591555 24.4229809654736 4.5 24.625 C5.419101562500032 24.708789062500003 6.33820312499995 24.792578125000006 7.28515625 24.87890625 C7.640292968750032 24.909199218750004 7.640292968750032 24.909199218750004 9.4375 25.0625 C9.4375 25.722499999999997 9.4375 26.382499999999993 9.4375 27.0625 C6.868561623579694 28.346969188210124 4.671736631178192 28.392271436997135 1.8125 28.625 C1.3110546875000182 28.666894531249994 1.3110546875000182 28.666894531249994 -1.2265625 28.87890625 C-1.61199218750005 28.909199218750004 -1.61199218750005 28.909199218750004 -3.5625 29.0625 C-6.0908309704126395 40.09307883835848 -8.192334885650098 50.71693924517521 -8.5625 62.0625 C-3.957314519846136 61.57669286119764 -1.3702531535921025 60.575481494616895 2.1875 57.625 C2.566484374999959 57.316269531249986 2.566484374999959 57.316269531249986 4.484375 55.75390625 C7.925068280894493 52.77426586874532 8.839114191483986 51.119354259871955 9.83984375 46.6875 C10.090566406249991 45.62015625000001 10.341289062499982 44.552812500000016 10.599609375 43.453125 C11.116343021006287 41.19355419529758 11.629368011253177 38.93313205233861 12.138671875 36.671875 C12.390683593750055 35.60453125000001 12.642695312499995 34.5371875 12.90234375 33.4375 C13.125270996093718 32.455234375 13.34819824218755 31.472968750000007 13.577880859375 30.4609375 C14.4375 28.0625 14.4375 28.0625 17.4375 26.0625 C19.427199502334247 25.67236284267956 21.42769868891378 25.33047350814482 23.4375 25.0625 C24.467274612006122 28.947181760170423 24.335574105110368 31.456060634684718 23.22265625 35.30078125 C23.085693359375 35.79352539062501 23.085693359375 35.79352539062501 22.392578125 38.287109375 C22.098027343750005 39.30611328124999 21.80347656250001 40.3251171875 21.5 41.375 C19.554306109475306 48.118058871153266 18.025041535322543 54.017036021734214 18.4375 61.0625 C20.21875 61.7109375 20.21875 61.7109375 22.4375 62.0625 C27.462036188555658 59.528194466298686 30.48921370258813 55.05577716691164 32.546875 49.97265625 C33.279147956963925 47.579922245885314 33.863314210492945 45.25034158602702 34.390625 42.80859375 C34.55538330078127 42.049738769531245 34.720141601562545 41.29088378906249 34.889892578125 40.509033203125 C35.208956103160745 38.98212074234759 35.50634589451124 37.45049039662126 35.780029296875 35.914794921875 C36.506091175685356 32.313022491055534 36.99280763627689 30.424343627169634 39.890625 28.06640625 C42.61110343103667 26.994070426723297 44.54050196000105 26.8141858822858 47.4375 27.0625 C47.10749999999996 29.372500000000002 46.77750000000003 31.682500000000005 46.4375 34.0625 C47.029179687500005 33.58039062500001 47.62085937500001 33.09828125 48.23046875 32.6015625 C48.62556640624996 32.285742187500006 48.62556640624996 32.285742187500006 50.625 30.6875 C51.402304687499964 30.061015624999996 52.17960937500004 29.434531249999992 52.98046875 28.7890625 C57.30791506010178 25.74815428209061 61.131165157885334 24.385095552070467 66.4375 25.0625 C68.8125 26.375 68.8125 26.375 70.4375 29.0625 C71.79542217071935 36.5726409849986 69.74759264388013 43.922300498030694 67.7734375 51.135498046875 C66.71438099484067 55.129640784208675 66.19411778315634 58.074292889369474 67.4375 62.0625 C72.01764554910108 60.08470987652453 74.86132902355882 58.38678699616909 77.4375 54.0625 C78.03288248334741 51.59591542613211 78.45847104342738 49.12638121769146 78.8828125 46.625 C80.62978851862226 38.55446289988579 85.28154119258386 32.27608518814466 92.125 27.8125 C96.81770075708755 25.13392301918458 100.99168239885694 23.610475614134373 106.4375 24.0625 C110.12478885230132 25.396200223172798 111.0966045647657 26.4233210589357 112.9375 29.875 C113.60046636966308 34.10141060660192 112.85323795163686 35.548699343073636 110.4375 39.0625 C105.78904533166519 44.22459606815087 100.11220079839723 47.23822486217438 93.4375 49.0625 C90.6328125 49.1640625 90.6328125 49.1640625 88.4375 49.0625 C88.72067926059697 50.66818665849121 89.0143779136348 52.272020474082666 89.3125 53.875 C89.47492187500006 54.76832031250001 89.63734375000001 55.66164062499999 89.8046875 56.58203125 C90.4375 59.0625 90.4375 59.0625 92.4375 62.0625 C97.25810473612967 63.669368245376546 100.19294409360305 63.00264869952588 104.625 60.875 C108.11132696843333 58.98106213247473 110.78440868364692 57.04722773089722 113.4375 54.0625 C114.09749999999997 54.0625 114.75749999999994 54.0625 115.4375 54.0625 C114.01914225501196 57.36472777551063 112.3307411797507 59.33873040992961 109.625 61.6875 C108.95855468750005 62.277890625 108.292109375 62.868281249999995 107.60546875 63.4765625 C101.67816929123421 67.81256895091693 95.52748653915887 67.68695680900453 88.4375 67.0625 C84.13338470610711 65.55228410740597 81.84296638016428 63.93797361248696 79.4375 60.0625 C76.91853950828317 61.18203799631857 75.0401534464745 62.382315518691286 72.875 64.125 C68.83300206191223 67.33787015591588 65.47456088076558 67.33234254718388 60.4375 67.0625 C57.4375 65.0625 57.4375 65.0625 56.4375 62.0625 C56.132941686238155 56.136302811383416 56.917970660098945 51.146002114763405 58.4375 45.4375 C59.731110621956304 40.5252758814903 60.69667738605153 36.19745196114704 60.4375 31.0625 C55.08127766680991 31.38711953534485 51.94444978844581 34.28950574484455 48.4375 38.0625 C43.524233091699216 44.18039708692004 42.22671643089416 51.418839742764106 40.780517578125 58.9423828125 C39.62569036633113 64.87430963366893 39.62569036633113 64.87430963366893 37.4375 67.0625 C33.8125 67.1875 33.8125 67.1875 30.4375 67.0625 C30.10749999999996 65.4125 29.777500000000032 63.76249999999999 29.4375 62.0625 C28.509374999999977 62.701875 27.581249999999955 63.34125 26.625 64 C22.044457733933314 66.96388028980783 18.84815954618523 67.44219540674985 13.4375 67.0625 C10.131951910304451 65.45439552393188 9.54429677862322 64.33483178548931 8.1875 60.875 C7.940000000000055 59.946875000000006 7.6924999999999955 59.01875000000001 7.4375 58.0625 C6.8458203124999955 58.54460937499999 6.254140624999991 59.026718749999986 5.64453125 59.5234375 C4.854335937499968 60.15507812499999 4.06414062500005 60.786718750000006 3.25 61.4375 C2.4726953125000364 62.06398437499999 1.695390624999959 62.69046875000001 0.89453125 63.3359375 C-3.6027003539755924 66.49615430279368 -7.095205885318137 67.31679274952009 -12.5625 67.0625 C-17.41491263751709 60.592616483310536 -16.648332226215302 55.82577292443676 -15.5625 48.0625 C-15.289775082414053 45.793020872723616 -15.028754167510101 43.522355487999164 -14.76806640625 41.25146484375 C-14.509328852208796 39.018027196024434 -14.237833870927943 36.78642029651304 -13.96484375 34.5546875 C-13.5625 31.0625 -13.5625 31.0625 -13.5625 29.0625 C-14.552500000000009 28.7325 -15.542500000000018 28.402500000000003 -16.5625 28.0625 C-16.5625 27.072500000000005 -16.5625 26.082499999999996 -16.5625 25.0625 C-14.912500000000023 25.0625 -13.262500000000045 25.0625 -11.5625 25.0625 C-11.308554687499964 24.000312500000007 -11.054609375000041 22.938125 -10.79296875 21.84375 C-5.522637521404135 0.09688837756849011 -5.522637521404135 0.09688837756849011 0 0 Z " fill="#98B8AB" transform="translate(834.5625,85.9375)"/>
<path d="M0 0 C5.513267049415305 1.4591503769881058 9.717959826311727 4.227489170561796 14.1875 7.6875 C15.21875 8.471249999999998 16.25 9.254999999999995 17.3125 10.0625 C26.670210779082197 18.606496798292426 26.670210779082197 18.606496798292426 27.69921875 22.74609375 C28.299969695898568 25.134679510892667 29.35650217026793 26.095327974146016 31.1875 27.6875 C27.073714442013113 34.39209518599563 27.073714442013113 34.39209518599563 23.375 35.625 C23.014062499999994 35.6353125 23.014062499999994 35.6353125 21.1875 35.6875 C21.1875 35.0275 21.1875 34.36750000000001 21.1875 33.6875 C20.527500000000003 33.6875 19.867500000000007 33.6875 19.1875 33.6875 C18.857500000000016 35.00749999999999 18.527500000000003 36.327499999999986 18.1875 37.6875 C18.847499999999997 37.357500000000016 19.507499999999993 37.0275 20.1875 36.6875 C20.1875 37.3475 20.1875 38.00749999999999 20.1875 38.6875 C20.517499999999984 38.85249999999999 20.517499999999984 38.85249999999999 22.1875 39.6875 C20.406978103827953 42.3028453493223 18.631847396121373 44.662032092584894 16.1875 46.6875 C12.3125 46.625 12.3125 46.625 9.1875 45.6875 C9.517499999999984 44.69749999999999 9.847499999999997 43.70750000000001 10.1875 42.6875 C10.1875 42.357500000000016 10.1875 42.0275 10.1875 41.6875 C9.197499999999991 41.6875 8.20750000000001 41.6875 7.1875 41.6875 C7.1875 42.67750000000001 7.1875 43.66749999999999 7.1875 44.6875 C4.217500000000001 44.357500000000016 1.2475000000000023 44.0275 -1.8125 43.6875 C-2.4724999999999966 45.00749999999999 -3.132499999999993 46.327499999999986 -3.8125 47.6875 C-5.1365756096459165 48.05589200429665 -6.4712188154666705 48.38774397769899 -7.8125 48.6875 C-9.375 50.2109375 -9.375 50.2109375 -10.8125 52.0625 C-11.330703125000014 52.68769531250001 -11.848906249999999 53.312890624999994 -12.3828125 53.95703125 C-12.854609374999995 54.52808593750001 -13.326406249999991 55.09914062499999 -13.8125 55.6875 C-15.6875 57.75 -15.6875 57.75 -17.8125 58.6875 C-22.42032741920724 57.88295870458285 -26.523514219544637 56.56393127894921 -30.8125 54.6875 C-30.402291225673224 53.37296733681646 -29.98381747175 52.061014473264606 -29.5625 50.75 C-29.330468749999994 50.0191015625 -29.09843749999999 49.288203124999995 -28.859375 48.53515625 C-27.8125 45.6875 -27.8125 45.6875 -26.790771484375 43.786865234375 C-23.347949069042443 37.15799102524912 -23.788495261417324 31.924544952437458 -24.375 24.625 C-24.832079922904626 14.268941746749903 -24.832079922904626 14.268941746749903 -22.65087890625 10.8857421875 C-19.2164316951079 7.77971051194524 -15.08699027616396 6.365481176837477 -10.8125 4.6875 C-8.96484375 3.06640625 -8.96484375 3.06640625 -7.625 1.5625 C-4.408700651759716 -0.5816995654935369 -3.6895626583642525 -0.5472287123262021 0 0 Z " fill="#A9CEB8" transform="translate(198.8125,96.3125)"/>
<path d="M0 0 C3.827038344396442 3.1030040630241373 5.683590815133925 6.1023579912261 6.22265625 11.0390625 C6.436567646252797 16.451950874745037 5.785940897156706 21.281376856845213 3 26 C-0.16391291822776566 29.40015174945546 -3.3036723491104567 31.858639362425862 -8 32.25 C-8.990000000000009 32.16749999999999 -9.980000000000018 32.08500000000001 -11 32 C-11.659999999999968 31.00999999999999 -12.32000000000005 30.02000000000001 -13 29 C-12.541093749999959 28.659687500000004 -12.082187500000032 28.319375000000008 -11.609375 27.96875 C-6.284835971257166 23.762811607547718 -2.653981293912011 19.510984606870338 -1.65625 12.62890625 C-1.5191316676095994 9.149528565594721 -1.5262205268313664 6.8798761644561495 -3.203125 3.765625 C-5 2 -5 2 -7.41796875 1.46875 C-18.01817176154168 1.58835736825435 -23.822454480107126 5.128415791879888 -31.484375 12.33203125 C-47.39297801560133 29.2040434544343 -54.66457539701446 50.924692709799814 -54.47509765625 73.82177734375 C-54.215126464122704 82.37784580508765 -53.029258720094504 89.17356793251219 -47.625 96 C-42.300046111031634 100.05710772492824 -38.27163862845077 101.3873416300604 -31.5625 101.25 C-30.3056640625 101.23453125 -29.048828125 101.2190625 -27.75390625 101.203125 C-24.094552304270564 101.00511625371703 -20.6139692735851 100.57823508377362 -17 100 C-17.94439427161592 102.39312475111058 -18.531043947333615 103.72498857305342 -20.78515625 105.046875 C-31.203187511650412 108.2634198149178 -44.00541080650714 109.08205307294912 -53.99609375 104.1796875 C-61.96287801718654 99.48968974426833 -66.41250451556596 92.93420931086064 -68.8203125 83.93359375 C-69.36098341042111 80.95228865943847 -69.73703772631995 78.01780514080374 -70 75 C-70.07089843749998 74.2639453125 -70.14179687499995 73.527890625 -70.21484375 72.76953125 C-71.13358969850992 53.181867627768156 -61.55066272091517 30.954672982655566 -48.625 16.6875 C-36.71653604330049 4.026901190059803 -17.614596985142953 -9.670759129098116 0 0 Z " fill="#98B7AB" transform="translate(671,59)"/>
<path d="M0 0 C0.6393750000000011 0.680624999999992 1.2787500000000023 1.3612500000000125 1.9375 2.0625 C9.375577665904359 9.417702148735515 17.751390671534352 14.2970750091728 27 19 C27.449170735019464 26.64713176370651 24.090727109996052 32.40735994051741 19.171875 38.125 C11.11693925702889 45.721524765728844 1.3513536485266684 48.18028020656803 -9.4375 48.125 C-10.188378906249994 48.12886718749999 -10.939257812500003 48.132734374999984 -11.712890625 48.13671875 C-15.60864316955255 48.1298660630263 -19.195493396902194 47.95301755862886 -23 47 C-26.05324182590423 35.16868792462111 -26.72177175241916 22.487683992916374 -21.375 11.25 C-17.08773955166761 4.324425429616895 -7.245714747058486 2.5040337728805184 0 0 Z " fill="#A2CAB3" transform="translate(75,154)"/>
<path d="M0 0 C3.3950474667124126 2.070150894336834 3.854808457887202 3.519053016751556 5 7.3125 C5 11.93136771342617 3.9550359320658117 14.575799595307558 1 18 C-8.763199999999983 27 -8.763199999999983 27 -12 27 C-9.370274329346671 35.831689309849054 -6.794408426872906 43.652451170047755 -1 51 C6.127644874893122 44.89059010723446 7.750347970898247 36.944877681991215 9 28 C10.32000000000005 28 11.639999999999986 28 13 28 C14.686145964351681 35.058772546416435 12.231947937583868 39.74830272679492 9 46 C7.157358330251327 48.81562535517668 5.187365522287905 51.44431519732683 3 54 C4.290847206003718 56.87958222877745 5.473476202050961 59.06661045709998 8 61 C10.69921875 61.73046875 10.69921875 61.73046875 13.6875 62.1875 C14.681367187499973 62.346054687499986 15.675234374999945 62.504609375 16.69921875 62.66796875 C17.458476562499982 62.77753906250001 18.217734374999964 62.887109374999994 19 63 C17.44880433379808 64.82265490778724 16.47982597565897 65.88004350608526 14.125 66.46875 C9.106933973979835 66.54254508861794 5.947702414766695 65.62377376069011 1.5 63.25 C-3.3223160858287883 60.848902421798755 -3.3223160858287883 60.848902421798755 -6.34765625 61.5234375 C-7.836593003248936 62.26396689050475 -9.307209459308865 63.04240832683681 -10.7578125 63.85546875 C-16.38394429520156 66.72734438762035 -22.392245777039648 66.41241848607646 -28.375 64.875 C-33.37167404837987 63.17283631318929 -35.6516644542595 60.69667109148108 -38 56 C-38.55978082723493 50.014651154950144 -38.499940434057294 45.08055869459929 -35 40 C-31.69255181344147 36.18831552660174 -28.515992623218608 33.25079829595637 -24.0625 30.875 C-22.30078125 29.6953125 -22.30078125 29.6953125 -21 28 C-20.620754262413698 24.707254654838962 -20.75772106966167 21.60477817912971 -20.93359375 18.296875 C-21.057723432813532 12.134201335609362 -19.418096054485773 7.701715265382958 -15.5 3 C-10.846628573775092 -0.7226971409799461 -5.73456004215393 -0.6580642671324171 0 0 Z " fill="#99B9AB" transform="translate(564,88)"/>
<path d="M0 0 C20.987330108521405 0.431607022796868 41.8918502922171 1.1211851164151199 62.82958984375 2.69091796875 C67.50637342558741 3.0404485238986183 72.18478002031623 3.3658131107488316 76.86328125 3.69140625 C86.70719358397321 4.378383461000908 96.54946334417241 5.086619918073183 106.390869140625 5.80859375 C108.09901700050148 5.933903745521974 109.80718678569474 6.05891531232092 111.515380859375 6.18359375 C170.4410819922632 10.48909519284777 228.70592608278298 18.48139360986619 287 28 C285.54833984375 29.54516601562503 285.54833984375 29.54516601562503 283 31 C279.9690837009766 30.927602508057817 277.21227240035535 30.691053962568816 274.2265625 30.27734375 C272.4122752714345 30.060783963180768 270.5974670900662 29.848554846762795 268.7822265625 29.64013671875 C267.8330334472656 29.52982116699218 266.88384033203124 29.419505615234385 265.9058837890625 29.30584716796875 C261.1207080878977 28.802202651301315 256.32660655784014 28.52411231042001 251.5234375 28.25390625 C250.54528579711916 28.197509765625 249.56713409423833 28.14111328125 248.55934143066406 28.0830078125 C246.5381300058399 27.96731395527121 244.5168526793966 27.852766175054057 242.49551391601563 27.73931884765625 C208.7627236934867 25.827905133150722 175.45802248489008 22.685631007687334 142 18 C140.44450751644433 17.783302575036146 138.8890062697194 17.566668043975852 137.33349609375 17.35009765625 C123.80712292743237 15.463054110091974 110.28815725235188 13.54249523421825 96.802490234375 11.381103515625 C64.42559731479002 6.2241846510610515 31.671065468257666 4.367571899438133 -1 2 C-0.6700000000000159 1.3400000000000034 -0.339999999999975 0.6800000000000068 0 0 Z " fill="#9FC3B0" transform="translate(487,197)"/>
<path d="M0 0 C4.319401556033739 0.5931118554553905 8.083739917247641 1.616958841240745 12.125 3.25 C13.13820312499999 3.6470312499999977 14.151406250000008 4.0440624999999955 15.1953125 4.453125 C19.921977561037068 7.060032192438285 22.458171223399717 10.900104815860601 24 16 C25.76311002819392 26.226038163524834 25.191448899967128 35.88411534568746 23 46 C12.834256371192964 49.881465749180876 0.1274259205054591 49.131747752949366 -9.8359375 44.75390625 C-12.258507530859475 43.556193055471454 -14.639801845738305 42.31568492854589 -17 41 C-14.861100207676827 39.901157189144755 -12.849032033492477 38.9496773444975 -10.5625 38.1875 C-7.338583590578139 36.69348995660937 -5.38978680113641 34.594625669805254 -3 32 C-3 32.99000000000001 -3 33.97999999999999 -3 35 C-2.3400000000000034 35 -1.6800000000000068 35 -1 35 C1 30.25 1 30.25 1 28 C-0.36485982368870395 26.188936003182306 -1.7924340559081315 24.424824568844997 -3.25 22.6875 C-3.6444531250000125 22.21505859375 -3.6444531250000125 22.21505859375 -5.640625 19.82421875 C-6.419218749999999 18.892226562500014 -7.197812499999998 17.960234375 -8 17 C-9.337767853214558 15.336890645068308 -10.672615545209823 13.671408407522506 -12 12 C-11.385117187499986 11.468906250000003 -10.770234375000001 10.937812500000007 -10.13671875 10.390625 C-9.328476562499986 9.684218750000014 -8.520234375000001 8.977812499999999 -7.6875 8.25 C-6.886992187499999 7.553906250000011 -6.086484374999998 6.857812499999994 -5.26171875 6.140625 C-3.220343993990383 4.2085466471618815 -1.6010714866203273 2.30056873805637 0 0 Z " fill="#A3CBB3" transform="translate(163,154)"/>
<path d="M0 0 C2.4042767708700694 1.5752158153976126 2.9009881016153827 2.67172525669271 3.73046875 5.421875 C4.119083085750162 10.580871109378734 2.7810698807808762 15.086036232351177 1.5 20.0625 C1.0008245184717453 22.009284377960313 0.5108911520071615 23.958467253020558 0.03125 25.91015625 C-0.18982421875000455 26.767463378906257 -0.4108984375000091 27.624770507812514 -0.638671875 28.508056640625 C-1.0393039417311343 31.271064414358023 -0.6951460456854761 33.312923784476084 0 36 C3.5572250243951657 34.98364999302996 5.401412633689802 33.740656666612495 7.625 30.875 C8.408749999999998 29.92625000000001 9.192499999999995 28.977499999999992 10 28 C10.990000000000009 28 11.980000000000018 28 13 28 C11.651574451852582 33.56225538610812 7.433101214061594 36.73442841261209 3 40 C-0.761041409701761 41.25368046990059 -4.067961119232621 41.565230589110314 -8 41 C-10 39.5 -10 39.5 -11 37 C-11.460493940846561 29.89523634122429 -10.030508708200841 23.416244757059076 -8.5 16.5 C-8.261523437499989 15.391406250000003 -8.023046874999977 14.282812500000006 -7.77734375 13.140625 C-7.192169441364285 10.425416207930397 -6.59956200763088 7.712061336645192 -6 5 C-12.406731053186263 5.863129044665371 -15.603877932326327 8.01378816939176 -19.5703125 12.95703125 C-24.086157271778006 19.617334971190132 -25.572249255869735 26.58460585399635 -27.140625 34.33984375 C-28 38 -28 38 -30 41 C-33.625 41.1875 -33.625 41.1875 -37 41 C-37.660000000000025 39.68000000000001 -38.31999999999999 38.360000000000014 -39 37 C-39.48468750000001 37.28874999999999 -39.969375000000014 37.577499999999986 -40.46875 37.875 C-45.59339370282339 40.71326420464064 -49.14030687889908 41.78129241614678 -55 41 C-57.5 39.625 -57.5 39.625 -59 37 C-59.92382357006073 29.30708619824813 -58.179255726635574 21.97931676230516 -56.3125 14.5625 C-56.068222656249986 13.488066406249999 -55.82394531249997 12.413632812499998 -55.572265625 11.306640625 C-55.31767578124999 10.278613281250003 -55.06308593749998 9.250585937500006 -54.80078125 8.19140625 C-54.57559814453123 7.265295410156256 -54.35041503906251 6.339184570312497 -54.118408203125 5.385009765625 C-52.66039944515887 2.2758005194842355 -51.07555727078142 1.4245580538918148 -48 0 C-45.1875 -0.1875 -45.1875 -0.1875 -43 0 C-43.74667671230725 7.32944726793545 -45.44947448504399 14.271015891907737 -47.271484375 21.3984375 C-48.420309152968116 26.033928732384425 -49.3122190701489 30.180618455650006 -49 35 C-47.22265625 35.65625 -47.22265625 35.65625 -45 36 C-43.18359375 35.03125 -43.18359375 35.03125 -41.4375 33.5 C-41.148105468749975 33.25765625 -41.148105468749975 33.25765625 -39.68359375 32.03125 C-34.77070652033228 26.10386865562134 -33.64933844122936 18.00379600542348 -32.0703125 10.67578125 C-30.585881189229042 4.493906120276307 -30.585881189229042 4.493906120276307 -27.51171875 1.90234375 C-24.559059681465726 0.8415906476183324 -22.96052502527874 1.0695492777695392 -20 2 C-20 3.980000000000004 -20 5.959999999999994 -20 8 C-19.787949218749986 7.800839843749998 -19.787949218749986 7.800839843749998 -18.71484375 6.79296875 C-13.140033689183383 1.7572612005590287 -7.861310790017683 -2.501326160460181 0 0 Z " fill="#98B7AB" transform="translate(500,112)"/>
<path d="M0 0 C1.1343749999999773 0.020624999999995453 2.2687499999999545 0.041250000000005116 3.4375 0.0625 C2.930753433843279 6.2701454354200195 1.4455396005454304 12.077903829020968 -0.2783203125 18.045166015625 C-0.7473939046336682 19.706573968303744 -1.1602557066144072 21.38365934392212 -1.5625 23.0625 C0.10092837037484514 24.725928370374874 2.2200708960591555 24.4229809654736 4.5 24.625 C5.419101562500032 24.708789062500003 6.33820312499995 24.792578125000006 7.28515625 24.87890625 C7.640292968750032 24.909199218750004 7.640292968750032 24.909199218750004 9.4375 25.0625 C9.4375 25.722499999999997 9.4375 26.382499999999993 9.4375 27.0625 C6.868561623579694 28.346969188210124 4.671736631178192 28.392271436997135 1.8125 28.625 C1.3110546875000182 28.666894531249994 1.3110546875000182 28.666894531249994 -1.2265625 28.87890625 C-1.61199218750005 28.909199218750004 -1.61199218750005 28.909199218750004 -3.5625 29.0625 C-6.0908309704126395 40.09307883835848 -8.192334885650098 50.71693924517521 -8.5625 62.0625 C-3.957314519846136 61.57669286119764 -1.3702531535921025 60.575481494616895 2.1875 57.625 C2.566484374999959 57.316269531249986 2.566484374999959 57.316269531249986 4.484375 55.75390625 C7.925068280894493 52.77426586874532 8.839114191483986 51.119354259871955 9.83984375 46.6875 C10.090566406249991 45.62015625000001 10.341289062499982 44.552812500000016 10.599609375 43.453125 C11.116343021006287 41.19355419529758 11.629368011253177 38.93313205233861 12.138671875 36.671875 C12.390683593750055 35.60453125000001 12.642695312499995 34.5371875 12.90234375 33.4375 C13.125270996093718 32.455234375 13.34819824218755 31.472968750000007 13.577880859375 30.4609375 C14.4375 28.0625 14.4375 28.0625 17.4375 26.0625 C19.427199502334247 25.67236284267956 21.42769868891378 25.33047350814482 23.4375 25.0625 C24.467274612006122 28.947181760170423 24.335574105110368 31.456060634684718 23.22265625 35.30078125 C23.085693359375 35.79352539062501 23.085693359375 35.79352539062501 22.392578125 38.287109375 C22.098027343750005 39.30611328124999 21.80347656250001 40.3251171875 21.5 41.375 C19.554306109475306 48.118058871153266 18.025041535322543 54.017036021734214 18.4375 61.0625 C20.928148881361153 61.74957555347896 22.816362915722266 62.0625 25.4375 62.0625 C25.4375 63.05250000000001 25.4375 64.04249999999999 25.4375 65.0625 C21.312341267235865 67.06257696134017 18.003429199158973 67.47758447265082 13.4375 67.0625 C10.131951910304451 65.45439552393188 9.54429677862322 64.33483178548931 8.1875 60.875 C7.940000000000055 59.946875000000006 7.6924999999999955 59.01875000000001 7.4375 58.0625 C6.8458203124999955 58.54460937499999 6.254140624999991 59.026718749999986 5.64453125 59.5234375 C4.854335937499968 60.15507812499999 4.06414062500005 60.786718750000006 3.25 61.4375 C2.4726953125000364 62.06398437499999 1.695390624999959 62.69046875000001 0.89453125 63.3359375 C-3.6027003539755924 66.49615430279368 -7.095205885318137 67.31679274952009 -12.5625 67.0625 C-17.41491263751709 60.592616483310536 -16.648332226215302 55.82577292443676 -15.5625 48.0625 C-15.289775082414053 45.793020872723616 -15.028754167510101 43.522355487999164 -14.76806640625 41.25146484375 C-14.509328852208796 39.018027196024434 -14.237833870927943 36.78642029651304 -13.96484375 34.5546875 C-13.5625 31.0625 -13.5625 31.0625 -13.5625 29.0625 C-14.552500000000009 28.7325 -15.542500000000018 28.402500000000003 -16.5625 28.0625 C-16.5625 27.072500000000005 -16.5625 26.082499999999996 -16.5625 25.0625 C-14.912500000000023 25.0625 -13.262500000000045 25.0625 -11.5625 25.0625 C-11.308554687499964 24.000312500000007 -11.054609375000041 22.938125 -10.79296875 21.84375 C-5.522637521404135 0.09688837756849011 -5.522637521404135 0.09688837756849011 0 0 Z " fill="#98B8AB" transform="translate(834.5625,85.9375)"/>
<path d="M0 0 C0.9474609374999545 -0.014179687500003979 1.8949218750000227 -0.028359374999993747 2.87109375 -0.04296875 C5.639825446510713 0.19412148235723237 7.2543621863186445 0.6646596493642392 9.5625 2.1875 C10.3125 4.3125 10.3125 4.3125 10.5625 6.1875 C6.5625 6.1875 6.5625 6.1875 3.5625 4.1875 C-2.7708333333333712 3.8541666666666714 -2.7708333333333712 3.8541666666666714 -5.4375 5.1875 C-6.1466622933392046 11.129533531557456 -6.1466622933392046 11.129533531557456 -4.32861328125 13.841796875 C-2.781400783102754 15.459916902735927 -1.1799615451755017 16.957760886428844 0.5 18.4375 C4.959193214692277 22.51447665343298 7.320043910664822 24.722529758425964 7.9375 31 C7.867906863741609 34.78586661245555 6.8887961224161245 37.14026784088429 4.16796875 39.9296875 C-0.4092290147843869 43.51571591912548 -4.87828976804451 44.46442765015166 -10.625 44.0625 C-14.484758845636406 43.52213376161089 -17.34463343356356 42.68174723099716 -20.4375 40.1875 C-20.76750000000004 39.5275 -21.097499999999968 38.86750000000001 -21.4375 38.1875 C-24.200914028048942 39.244099481312816 -26.731010949891242 40.35339749341679 -29.3125 41.8125 C-33.0434612011926 43.454122928524725 -35.39923652913774 43.70146080538245 -39.4375 43.1875 C-42.375 41.9375 -42.375 41.9375 -44.4375 39.1875 C-47.047638044139944 28.410793681391965 -42.08942226739157 14.272124013970853 -38.4375 4.1875 C-36.4375 2.1875 -36.4375 2.1875 -34.4921875 1.9921875 C-32.47395833333337 2.0572916666666714 -30.45572916666663 2.1223958333333286 -28.4375 2.1875 C-29.123752191071276 9.07368577937062 -30.758382069721733 15.407603559137328 -32.708984375 22.033203125 C-34.26100478063336 27.594232508449977 -34.6629617426712 32.41221074542145 -34.4375 38.1875 C-32.30078125 38.5 -32.30078125 38.5 -29.4375 38.1875 C-27.301671586976568 36.573378662222495 -25.510031563312964 35.049880983780554 -23.625 33.1875 C-23.122910156249986 32.710546875000006 -22.620820312499973 32.23359375000001 -22.103515625 31.7421875 C-20.8709327026354 30.56829900250989 -19.652742112117835 29.379331143232918 -18.4375 28.1875 C-17.777500000000032 28.517499999999984 -17.11749999999995 28.847499999999997 -16.4375 29.1875 C-15.836737440567049 31.461497539779486 -15.481184600737151 33.73880576447368 -15.09765625 36.05859375 C-14.4375 38.1875 -14.4375 38.1875 -11.4375 40.1875 C-7.875 40.0625 -7.875 40.0625 -4.4375 39.1875 C-2.9375 37.5 -2.9375 37.5 -2.4375 35.1875 C-2.638130647143953 31.910532763316212 -2.7845282416857344 29.918828369311967 -5 27.4375 C-5.474375000000009 27.025000000000006 -5.948750000000018 26.61250000000001 -6.4375 26.1875 C-6.4375 25.527500000000003 -6.4375 24.867500000000007 -6.4375 24.1875 C-6.72625000000005 24.084374999999994 -6.72625000000005 24.084374999999994 -8.1875 23.5625 C-11.422128738262131 21.58578243772868 -12.696387928899753 19.54535899426466 -14.4375 16.1875 C-15.099253743497115 12.018451415967903 -15.402342925853304 9.760284706720071 -13.19140625 6.15625 C-9.196350677773466 1.2944367350460482 -6.348146335131901 0.0430674785287124 0 0 Z " fill="#98B8AB" transform="translate(803.4375,109.8125)"/>
<path d="M0 0 C1.030327401868817 7.539379877167391 -0.538824352108918 12.158391445807297 -4.89453125 18.33984375 C-19.31074376599929 36.55401948913831 -42.45848462348977 48.19335333883237 -65 53 C-67.4375 52.6171875 -67.4375 52.6171875 -69 52 C-68.14019531250005 51.62230468749999 -67.280390625 51.24460937500001 -66.39453125 50.85546875 C-56.47390154505092 46.23593888739009 -46.20808952184473 40.31213428276709 -40 31 C-39.34000000000003 31 -38.67999999999995 31 -38 31 C-37.731874999999945 30.417343749999986 -37.463750000000005 29.8346875 -37.1875 29.234375 C-35.98519009498 26.972133994501945 -34.66174087409729 25.19423682269388 -33 23.25 C-32.484375 22.636406249999993 -31.96875 22.022812499999986 -31.4375 21.390625 C-30 20 -30 20 -28 20 C-27.75121093749999 19.418632812499993 -27.502421874999982 18.837265624999986 -27.24609375 18.23828125 C-22.760086590050832 10.180343624135105 -9.375528044028215 0 0 0 Z " fill="#98B8AB" transform="translate(971,166)"/>
<path d="M0 0 C21.271687467301604 0.8508674986920539 40.726548085374134 3.337782497322678 59 15 C59.357714843750045 15.217207031250013 59.357714843750045 15.217207031250013 61.16796875 16.31640625 C65.76153222863456 19.284102911036797 67.4703781821122 22.33328388768976 70 27 C52.81297540230889 28.762582126699556 42.273203144829495 25.404650314017516 28 16 C26.741933622609622 15.21546668142858 25.48049947171785 14.436292473487072 24.21484375 13.6640625 C22.080971575427498 12.361277382892553 19.953901194066475 11.047241365944046 17.8359375 9.71875 C12.129776728591196 6.2604707446006955 6.209116184020672 3.4268024522052656 0 1 C0 0.6699999999999875 0 0.3400000000000034 0 0 Z " fill="#99B8AB" transform="translate(778,230)"/>
<path d="M0 0 C0.9900000000000091 0 1.9799999999999898 0 3 0 C4.5625 2.375000000000014 4.5625 2.375000000000014 6 5 C6.659999999999997 5.659999999999997 7.319999999999993 6.319999999999993 8 7 C8.074009332074922 10.373592053749178 7.498717801079351 13.668565088789961 7 17 C6.835000000000008 18.299374999999998 6.670000000000016 19.598749999999995 6.5 20.9375 C5 24 5 24 3.0078125 25.0234375 C0.625 25.8125 0.625 25.8125 -1.7109375 26.39453125 C-4.0405556307525785 27.010727171956745 -5.928485195623267 27.772604664367094 -8 29 C-8.330000000000013 29.659999999999997 -8.659999999999997 30.319999999999993 -9 31 C-8.133749999999992 30.670000000000016 -7.2675000000000125 30.340000000000003 -6.375 30 C-3.0428172542201537 29.012686593843 -0.4484046207533652 28.83579025615461 3 29 C2.1875 31.4375 2.1875 31.4375 1 34 C0.5049999999999955 34.16499999999999 0.5049999999999955 34.16499999999999 -2 35 C-2.1443749999999966 35.453750000000014 -2.1443749999999966 35.453750000000014 -2.875 37.75 C-4.204417737090068 41.59054012937128 -6.0855657704510975 43.23128748192855 -9 46 C-9.697485832462917 47.317473239096614 -10.369599568548665 48.649141932604266 -11 50 C-12.625000000000028 51.75000000000003 -12.625000000000028 51.75000000000003 -14 53 C-16.310000000000002 52.34 -18.620000000000005 51.68000000000001 -21 51 C-20.589791225673224 49.68546733681646 -20.17131747175 48.373514473264606 -19.75 47.0625 C-19.517968749999994 46.3316015625 -19.28593749999999 45.600703124999995 -19.046875 44.84765625 C-18 42 -18 42 -16.978271484375 40.099365234375 C-13.536155699738828 33.47185158511354 -13.97305410677302 28.236076916616895 -14.5625 20.9375 C-15.055792335638955 10.586178579721746 -15.055792335638955 10.586178579721746 -12.7578125 7.1337890625 C-9.317714575416716 4.043993792432218 -5.357213076294812 2.4871231880581206 -1 1 C-0.6700000000000159 0.6700000000000017 -0.3400000000000034 0.3400000000000034 0 0 Z " fill="#97B6AA" transform="translate(189,100)"/>
<path d="M0 0 C3.593708890440169 1.2121880073375735 6.93369337750741 2.9130713112704143 10.3125 4.625 C10.754003906250006 4.848007812499986 10.754003906250006 4.848007812499986 12.98828125 5.9765625 C13.652148437500003 6.314296874999997 14.316015625000006 6.652031249999993 15 7 C15.407412938988557 13.936205286280284 12.84455971361561 18.376005004923258 9 24 C4.712279332178113 28.79012026122325 0.12981836190299134 32.07024236754904 -6 34 C-9.437500000000014 34.1875 -9.437500000000014 34.1875 -12 34 C-11.670000000000002 32.68000000000001 -11.340000000000003 31.360000000000014 -11 30 C-11.989999999999995 29.340000000000003 -12.980000000000004 28.680000000000007 -14 28 C-14.329999999999998 28.99000000000001 -14.659999999999997 29.97999999999999 -15 31 C-15.329999999999998 29.349999999999994 -15.659999999999997 27.69999999999999 -16 26 C-16.989999999999995 25.670000000000016 -17.980000000000004 25.340000000000003 -19 25 C-18.67 24.504999999999995 -18.67 24.504999999999995 -17 22 C-16.340000000000003 22 -15.680000000000007 22 -15 22 C-14.670000000000002 21.340000000000003 -14.340000000000003 20.680000000000007 -14 20 C-14.659999999999997 20 -15.319999999999993 20 -16 20 C-15.466955396907139 16.006682803948365 -13.573127775544123 14.316993178494528 -10.6875 11.625 C-7.192001742290998 8.262663580679913 -4.556315063296438 5.0901041012743065 -2 1 C-1.3400000000000034 0.6699999999999875 -0.6800000000000068 0.3400000000000034 0 0 Z " fill="#97B5AA" transform="translate(87,166)"/>
<path d="M0 0 C-0.1654069937536633 6.4508727563927835 -3.72788724778502 10.518311905223555 -8 15 C-23.671338391749487 28.537109427892517 -49.89325295404262 31.73115443803482 -70 31 C-66.511762557554 29.0129194668653 -63.01924550208798 28.222255027443396 -59.125 27.3125 C-47.23385035972797 24.29356370824533 -37.39263732439838 18.67143033167801 -27.75 11.14453125 C-9.428753721820499 -3.1429179072734996 -9.428753721820499 -3.1429179072734996 0 0 Z " fill="#99B9AC" transform="translate(895,193)"/>
<path d="M0 0 C2.6842161277724017 -0.23389595026671373 5.119665997070115 -0.2787732982758939 7.796875 -0.1796875 C8.582095336914108 -0.1603616333007949 9.367315673828102 -0.14103576660156136 10.17633056640625 -0.121124267578125 C11.847750679109254 -0.07613451034680452 13.518979189738047 -0.02348717067116013 15.18994140625 0.0361328125 C17.69816073476761 0.12320050614681577 20.205713597904605 0.1807886728443293 22.71484375 0.234375 C35.41666983087771 0.5771963280745638 47.77376857961883 1.4887857761789576 59 8 C57.28125 11.8515625 57.28125 11.8515625 54.75 13.1875 C37.60669648369958 18.252566947997877 19.739616024342922 14.568015964507055 4 7 C1.8735104334485868 5.7655210381443 -0.030407318411107553 4.477194511191698 -2 3 C-1.3400000000000318 2.009999999999991 -0.67999999999995 1.0200000000000102 0 0 Z " fill="#A0C5B1" transform="translate(865,224)"/>
<path d="M0 0 C1.375 2.125 1.375 2.125 2 4 C1.009999999999991 5.319999999999993 0.020000000000010232 6.640000000000001 -1 8 C-1.990000000000009 7.670000000000002 -2.9799999999999898 7.340000000000003 -4 7 C-3.3400000000000034 6.010000000000005 -2.680000000000007 5.019999999999996 -2 4 C-2 3.010000000000005 -2 2.019999999999996 -2 1 C-5.580382905890048 0.4734731020749905 -6.912605970669034 0.9435580227237494 -10 2.9375 C-16.37892576997561 8.741007208251006 -19.585529328085926 17.192140205796647 -20.3125 25.625 C-19.96615324689614 29.365544933521676 -19.48580825108823 31.18275064876667 -17 34 C-12.761379693918656 35.31868187300307 -9.296935719236387 34.92077193983636 -5 34 C-6.814971758780132 36.35135516515501 -7.722667632827864 36.95557879833174 -10.70703125 37.43359375 C-17.089844122534856 37.44162244543713 -21.203703946751318 37.40740718406636 -26 33 C-26.329999999999984 32.34 -26.659999999999997 31.680000000000007 -27 31 C-28.96093749999997 30.33203125 -28.96093749999997 30.33203125 -31.375 29.8125 C-32.166484374999996 29.63332031249999 -32.95796874999999 29.454140625000008 -33.7734375 29.26953125 C-36 29 -36 29 -39 30 C-45.26016260162602 30.455284552845512 -45.26016260162602 30.455284552845512 -48.4375 28.5 C-48.953125 28.004999999999995 -49.46875 27.50999999999999 -50 27 C-49.58388058532556 22.14527349546492 -47.54108047961594 20.19560921331194 -44 17 C-42 15 -42 15 -41.625 11.0625 C-41.317024149717284 8.090803199026439 -41.22157212117146 7.252133793057183 -39.1875 4.9375 C-36.622172245810006 3.8380738196328537 -35.55861290840991 3.994830643124672 -33 5 C-32.1875 7.1875 -32.1875 7.1875 -32 10 C-34.4375 12.8125 -34.4375 12.8125 -37 15 C-35.375 21.75 -35.375 21.75 -32 24 C-31.731875000000002 23.216250000000002 -31.463750000000005 22.432500000000005 -31.1875 21.625 C-30 19 -30 19 -27 17 C-26.44312500000001 15.803750000000008 -25.88624999999999 14.607500000000002 -25.3125 13.375 C-22.136440490216273 6.770239883063397 -17.297657061415606 1.524988453526717 -10.375 -1.125 C-6.370514264346923 -2.197012588991754 -3.708749343155972 -2.0805179242094454 0 0 Z " fill="#BAD2C7" transform="translate(160,105)"/>
<path d="M0 0 C0.920917375229692 2.5785686506432626 1.1850690234067542 3.5943287006923867 0.0234375 6.140625 C-0.31429687499996817 6.754218750000007 -0.65203125000005 7.367812499999999 -1 8 C-1.3261328124999636 7.976796875000005 -1.3261328124999636 7.976796875000005 -2.9765625 7.859375 C-7.207286560890793 7.684654832293603 -10.310138584023662 7.708135554779261 -14.25 9.375 C-21.237515354986613 16.044901020669016 -23.9496716403155 24.0015140351515 -26.088134765625 33.197998046875 C-26.981034859856322 36.73452740429795 -27.59096361824345 38.67096442476998 -30.4765625 40.9921875 C-33.187508251671375 42.074887196487964 -35.10823873512936 42.24786525127462 -38 42 C-38 40.68000000000001 -38 39.360000000000014 -38 38 C-38.99000000000001 38.66 -39.98000000000002 39.31999999999999 -41 40 C-41.99000000000001 39.670000000000016 -42.98000000000002 39.34 -44 39 C-43.419921875 38.484375 -42.83984375 37.96875 -42.2421875 37.4375 C-34.90933985140521 29.886844995506294 -33.0767485007525 22.315724301510983 -31.11669921875 12.154296875 C-30.908032226562455 11.132714843749994 -30.699365234375023 10.111132812500003 -30.484375 9.05859375 C-30.400424804687532 8.596102294921877 -30.400424804687532 8.596102294921877 -29.9755859375 6.255615234375 C-29 4 -29 4 -26.5830078125 2.660400390625 C-23.66461163017709 1.9142508941048106 -21.870312629912178 2.179910677167939 -19 3 C-19.33000000000004 4.980000000000004 -19.659999999999968 6.959999999999994 -20 9 C-19.564296874999968 8.529492187499997 -19.12859375000005 8.058984374999994 -18.6796875 7.57421875 C-12.817165365641358 1.4452183368068177 -8.827153407157311 -1.9419737495746006 0 0 Z " fill="#98B7AB" transform="translate(760,111)"/>
<path d="M0 0 C0.3299999999999841 0.6599999999999966 0.660000000000025 1.3199999999999932 1 2 C-0.0808244578963695 4.854485106752023 -1.229756639028949 7.636805854093367 -2.4375 10.4375 C-6.5211158004025265 20.199651521060673 -9.577891338506788 30.1532062956025 -12.472412109375 40.323974609375 C-12.789602050781241 41.43780517578125 -13.106791992187482 42.5516357421875 -13.43359375 43.69921875 C-13.712595214843759 44.697839355468744 -13.991596679687518 45.6964599609375 -14.279052734375 46.725341796875 C-15 49 -15 49 -16 50 C-18.530494020118 50.07313566532133 -21.033048367627316 50.09247527002812 -23.5625 50.0625 C-23.91795898437499 50.060244140625 -23.91795898437499 50.060244140625 -25.716796875 50.048828125 C-27.477900132234595 50.03700864005211 -29.238960358880377 50.019072631492264 -31 50 C-30.36923988505032 45.48099260111387 -28.606761696007766 41.713509249132585 -26.5625 37.6875 C-26.210505371093745 36.99180908203125 -25.85851074218749 36.296118164062506 -25.495849609375 35.579345703125 C-10.88872460190629 7.259149734604193 -10.88872460190629 7.259149734604193 0 0 Z " fill="#FCFDFC" transform="translate(324,65)"/>
<path d="M0 0 C-1.6366528261740427 12.145686762659963 -3.7823417469745664 24.20132621302116 -13 33 C-16.25 34.6875 -16.25 34.6875 -19 35 C-22 33 -22 33 -23 30 C-23.80087844929926 20.189238996083958 -20.273239469266173 11.44282648895988 -14 4 C-9.572449466553735 0.04253507874679485 -5.7204873456071255 -1.5547382619803614 0 0 Z " fill="#FCFDFD" transform="translate(391,114)"/>
<path d="M0 0 C2.2265625 1.63671875 2.2265625 1.63671875 4.625 3.6875 C8.110932931693526 6.594168112183624 11.50291074639965 8.919133298794009 15.5 11.0625 C18.760902476412056 12.985201931846731 19.853740480155324 13.73882228599166 21.75 17.125 C22.103223107173207 22.599958161184716 21.140772255552093 27.655920741298303 20 33 C18.68 33 17.36 33 16 33 C15.340000000000003 32.34 14.68 31.680000000000007 14 31 C13.010000000000005 30.340000000000003 12.019999999999996 29.680000000000007 11 29 C11.659999999999997 29 12.32 29 13 29 C6.945945945945944 17.97297297297297 6.945945945945944 17.97297297297297 3 16 C3 14.680000000000007 3 13.36 3 12 C1.3500000000000014 11.670000000000002 -0.29999999999999716 11.340000000000003 -2 11 C-2.3299999999999983 11.659999999999997 -2.6599999999999966 12.319999999999993 -3 13 C-5 13 -5 13 -6.9375 11.1875 C-7.277812499999996 10.826562499999994 -7.277812499999996 10.826562499999994 -9 9 C-9.5775 8.484375 -10.155000000000001 7.96875 -10.75 7.4375 C-12 6 -12 6 -12 3 C-11.010000000000002 3.3299999999999983 -10.020000000000003 3.6599999999999966 -9 4 C-8.670000000000002 2.680000000000007 -8.340000000000003 1.3599999999999994 -8 0 C-4.900046460196137 -0.9964136377940918 -3.0720904588223874 -1.0836100891119003 0 0 Z " fill="#98B7AA" transform="translate(43,96)"/>
<path d="M0 0 C3.3425216782716234 1.6712608391357975 4.314097597836394 5.369735138982236 5.875 8.625 C8.41353214603339 13.866151921278089 11.057416478582695 18.972536674170414 14 24 C10.475011641905212 27.231239328253565 6.684895655295577 28.492104770080118 2 29 C-2.3596331030155397 28.346055034547675 -4.32875152023405 27.706577347122106 -7.375 24.5 C-10.071222567247446 20.351965281157817 -10.404364773566954 18.014123192230045 -10 13 C-8.040703195872538 7.08852164240389 -4.976550826529319 3.619309692021332 0 0 Z " fill="#FCFDFD" transform="translate(544,121)"/>
<path d="M0 0 C0.6599999999999966 0.3299999999999983 1.3199999999999932 0.6599999999999966 2 1 C2 8.590000000000003 2 16.180000000000007 2 24 C-1.1102053951150452 24.777551348778758 -3.426779174619085 25.186330541616627 -6.5625 25.25 C-7.326914062499995 25.275781249999994 -8.091328125000004 25.301562500000003 -8.87890625 25.328125 C-11.626860816103033 24.90302705607246 -12.351564551684078 24.22325011473157 -14 22 C-15.1328125 19.40625 -15.1328125 19.40625 -16.125 16.5 C-16.457578124999998 15.540937499999998 -16.790156249999995 14.581874999999997 -17.1328125 13.59375 C-18.312246877068873 10.066072403721918 -19 7.796944327766873 -19 4 C-16.03 4.329999999999998 -13.060000000000002 4.659999999999997 -10 5 C-10 4.340000000000003 -10 3.6799999999999997 -10 3 C-9.340000000000003 3 -8.680000000000007 3 -8 3 C-8 2.3400000000000034 -8 1.6799999999999997 -8 1 C-2.25 0.875 -2.25 0.875 0 2 C0 1.3400000000000034 0 0.6799999999999997 0 0 Z " fill="#A2C8B2" transform="translate(114,49)"/>
<path d="M0 0 C0.7669921874999943 0.777304687499992 1.5339843750000028 1.5546093750000125 2.32421875 2.35546875 C4.769267495180017 4.771962181367684 7.280995622175837 6.902482337107074 10 9 C8.463864473789485 12.565148761365577 6.3161547994038045 15.038703560979428 3.6875 17.875 C0.3532572207523117 21.510400191566816 -2.882292395704809 25.178293904412357 -6 29 C-7 27 -7 27 -7 24 C-7.989999999999995 23.340000000000003 -8.980000000000004 22.680000000000007 -10 22 C-9.670000000000002 20.680000000000007 -9.340000000000003 19.360000000000014 -9 18 C-9.989999999999995 17.670000000000016 -10.980000000000004 17.340000000000003 -12 17 C-14 14 -14 14 -15 12 C-15.659999999999997 11.669999999999987 -16.32 11.340000000000003 -17 11 C-17 9 -17 9 -16 6 C-13.309649744655033 4.799420244357464 -10.711512412789887 3.771915053099832 -7.9375 2.8125 C-7.178886718749993 2.539863281250007 -6.420273437500001 2.2672265625000136 -5.638671875 1.986328125 C-3.762800801303115 1.313846041976575 -1.8818479677198638 0.6555704870636418 0 0 Z " fill="#97B5AA" transform="translate(75,154)"/>
<path d="M0 0 C1.3199999999999932 1.3200000000000003 2.6400000000000006 2.6400000000000006 4 4 C4 3.3400000000000034 4 2.6799999999999997 4 2 C8.517203107658162 1.633740288568255 8.517203107658162 1.633740288568255 10.8125 3.375 C12 5 12 5 12 7 C14.310000000000002 7.329999999999998 16.620000000000005 7.659999999999997 19 8 C19 11.11250191377465 18.63136563826049 11.996840074177541 17.1875 14.625 C14.935151601294933 18.937325403926422 13.418950991007904 23.356160393065053 12 28 C7.613132251035921 27.479524165377143 3.329747981775867 26.88099868419914 -1 26 C-1.0288675121888673 21.854181134106526 -1.046753274633673 17.70838783573373 -1.0625 13.5625 C-1.0708789062500017 12.378496093750002 -1.0792578125000034 11.194492187500003 -1.087890625 9.974609375 C-1.0911132812500028 8.849902343750003 -1.0943359375000057 7.725195312499999 -1.09765625 6.56640625 C-1.1028930664062528 5.524279785156253 -1.1081298828125057 4.482153320312499 -1.113525390625 3.408447265625 C-1 1 -1 1 0 0 Z " fill="#A4CBB4" transform="translate(124,48)"/>
<path d="M0 0 C1 3 1 3 0.35546875 4.91015625 C-4.591527137746596 14.026526598322363 -13.174781544928464 23.971478147363996 -23 28 C-31.901295175469485 27.506267304054774 -39.44975346584408 17.77481230208565 -45.3828125 11.8828125 C-47 10 -47 10 -47 8 C-44.04590299234809 9.371545039266948 -41.55991624014061 10.988637239889528 -39 13 C-38.34 11.680000000000007 -37.68000000000001 10.360000000000014 -37 9 C-36.010000000000005 9.330000000000013 -35.019999999999996 9.659999999999997 -34 10 C-34 10.659999999999997 -34 11.319999999999993 -34 12 C-34.33 12.164999999999992 -34.33 12.164999999999992 -36 13 C-33.999676266447295 14.000161866776352 -32.168742515778305 14.493960079651742 -30 15 C-30.33 15.164999999999992 -30.33 15.164999999999992 -32 16 C-31.010000000000005 16.659999999999997 -30.019999999999996 17.319999999999993 -29 18 C-30.650000000000006 18.329999999999984 -32.3 18.659999999999997 -34 19 C-33.34 19 -32.68000000000001 19 -32 19 C-30.626892925618463 20.292336070006144 -29.289651760438318 21.62437145553247 -28 23 C-27.67 22.00999999999999 -27.340000000000003 21.02000000000001 -27 20 C-25.349999999999994 19.670000000000016 -23.700000000000003 19.340000000000003 -22 19 C-22 17.02000000000001 -22 15.039999999999992 -22 13 C-21.010000000000005 13 -20.019999999999996 13 -19 13 C-18.67 12.340000000000003 -18.340000000000003 11.680000000000007 -18 11 C-17.174999999999997 11.164999999999992 -17.174999999999997 11.164999999999992 -13 12 C-12.835000000000008 12.659999999999997 -12.835000000000008 12.659999999999997 -12 16 C-11.340000000000003 16 -10.680000000000007 16 -10 16 C-10.206250000000011 15.422500000000014 -10.412499999999994 14.844999999999999 -10.625 14.25 C-11.088674599641735 11.467952402149592 -10.397620632228069 10.384176372624353 -9 8 C-9 7.6699999999999875 -9 7.340000000000003 -9 7 C-7.84830539524728 3.544916185741897 -7.0115332624049245 2.8929637649402196 -4 1 C-1.75 0.3125 -1.75 0.3125 0 0 Z " fill="#A1C8B2" transform="translate(144,203)"/>
<path d="M0 0 C7.32757266300078 0.8326787117046308 7.32757266300078 0.8326787117046308 10 4 C11.141676367750733 8.620221550741178 11.521296460529044 13.436110618412897 10 18 C9.340000000000003 18.659999999999997 8.680000000000007 19.319999999999993 8 20 C7.375 22.625 7.375 22.625 7 25 C6.340000000000003 25 5.680000000000007 25 5 25 C4.6699999999999875 25.659999999999997 4.340000000000003 26.319999999999993 4 27 C-0.6200000000000045 22.05000000000001 -5.240000000000009 17.099999999999994 -10 12 C-7.949524099866096 7.899048199732192 -6.501204636613011 6.73264752125894 -3 4 C-1.1875 1.75 -1.1875 1.75 0 0 Z " fill="#97B5AA" transform="translate(163,154)"/>
<path d="M0 0 C1.3199999999999932 0.3299999999999983 2.6400000000000006 0.6599999999999966 4 1 C2.019999999999996 9.909999999999997 0.03999999999999204 18.819999999999993 -2 28 C-0.3499999999999943 27.67 1.2999999999999972 27.340000000000003 3 27 C3 27.659999999999997 3 28.319999999999993 3 29 C1.6800000000000068 29.33 0.35999999999999943 29.659999999999997 -1 30 C-2.2840460246899 35.90661171357357 -1.9731339925888989 41.24167018489362 0 47 C2.202653522082443 49.866641830188456 2.930463019530592 49.987035478217564 6.6875 50.6875 C7.780625000000001 50.790625000000006 8.873750000000001 50.89375000000001 10 51 C6.24543433294825 53.50304377803451 4.452540656609841 53.45280074473999 0 53 C-3.3063940524555875 51.31561057705093 -5.412548893609653 50.13843973031507 -7.1328125 46.8046875 C-8.176816292115447 43.42813469486987 -8.387805917020373 40.33983371803552 -8.5625 36.8125 C-8.901983663943994 30.19603267211201 -8.901983663943994 30.19603267211201 -10 28 C-9.340000000000003 28 -8.680000000000007 28 -8 28 C-7.806640625 26.986796874999996 -7.61328125 25.973593749999992 -7.4140625 24.9296875 C-7.151250771328094 23.57808432397306 -6.888218173218306 22.226524081717088 -6.625 20.875 C-6.498671874999999 20.209843750000005 -6.372343749999999 19.544687499999995 -6.2421875 18.859375 C-5.4425725976323776 14.781338997925133 -4.40130514781174 10.911469151717966 -3 7 C-3.6599999999999966 7.329999999999998 -3.6599999999999966 7.329999999999998 -7 9 C-5.440473500493468 5.172071319393069 -3.1636816353006196 2.6364013627505187 0 0 Z " fill="#99B9AB" transform="translate(106,93)"/>
<path d="M0 0 C1.5290724612198403 3.0581449224396664 0.2258701173884532 4.999006600669375 -0.8125 8.1875 C-1.1863281250000028 9.352812499999999 -1.5601562500000057 10.518124999999998 -1.9453125 11.71875 C-2.119335937499997 12.260156249999994 -2.119335937499997 12.260156249999994 -3 15 C-3.404103821636795 16.39346145391997 -3.8022404062886466 17.788711321294173 -4.1875 19.1875 C-5 22 -5 22 -6 24 C-6.939726562499999 24.0992578125 -7.879453124999998 24.198515625 -8.84765625 24.30078125 C-12 25 -12 25 -13.87109375 27.29296875 C-14.388007812500007 28.248164062499995 -14.904921875 29.20335937499999 -15.4375 30.1875 C-19.245022480479207 36.63099958234943 -22.71527467742588 40.58417011958011 -29.625 43.5625 C-33 44 -33 44 -35.9375 42.6875 C-36.618125000000006 42.13062500000001 -37.29875 41.57374999999999 -38 41 C-38 40.670000000000016 -38 40.34 -38 40 C-37.359335937500006 39.94843750000001 -36.718671875 39.896874999999994 -36.05859375 39.84375 C-29.57380356669691 38.99328571366516 -26.410948389177065 37.285258767143944 -22.40625 32.109375 C-20.649009749228128 29.473514623842192 -19.23888261488179 26.915017917368928 -18 24 C-19.650000000000006 24.495000000000005 -19.650000000000006 24.495000000000005 -28 27 C-24.98848346842651 23.98848346842651 -24.45852547475313 23.68917952560254 -20.63671875 22.83984375 C-15.841897827150547 21.34831576813002 -14.264713522366861 19.224907989648926 -11.947265625 14.888671875 C-11.760029296875004 14.504853515625001 -11.760029296875004 14.504853515625001 -10.8125 12.5625 C-7.894494037947993 6.789817086758532 -5.77728702738348 3.135286013413605 0 0 Z " fill="#ADC8BC" transform="translate(103,99)"/>
<path d="M0 0 C1.375 2.125 1.375 2.125 2 4 C1.009999999999991 5.319999999999993 0.020000000000010232 6.640000000000001 -1 8 C-1.990000000000009 7.670000000000002 -2.9799999999999898 7.340000000000003 -4 7 C-3.3400000000000034 6.010000000000005 -2.680000000000007 5.019999999999996 -2 4 C-2 3.010000000000005 -2 2.019999999999996 -2 1 C-5.580382905890048 0.4734731020749905 -6.912605970669034 0.9435580227237494 -10 2.9375 C-16.37892576997561 8.741007208251006 -19.585529328085926 17.192140205796647 -20.3125 25.625 C-19.96615324689614 29.365544933521676 -19.48580825108823 31.18275064876667 -17 34 C-12.761379693918684 35.31868187300307 -9.296935719236387 34.92077193983636 -5 34 C-6.814971758780132 36.35135516515501 -7.722667632827864 36.95557879833174 -10.70703125 37.43359375 C-21.306022751064262 37.446925814781224 -21.306022751064262 37.446925814781224 -26 33 C-29.223802350486153 28.03360178438618 -27.96834348134493 22.566181789064203 -27 17 C-25.00556536045437 10.344286688601983 -20.43873265275431 5.191756912263912 -15 1 C-9.814992464637157 -1.7811292533164504 -5.395383650598234 -3.0266786332624207 0 0 Z " fill="#99B8AB" transform="translate(160,105)"/>
<path d="M0 0 C-3.303447604566429 1.9707434345518493 -5.786919319093556 2.2505203580248576 -9.608154296875 2.25537109375 C-10.74739349365234 2.2625062561035065 -11.886632690429678 2.2696414184570415 -13.060394287109375 2.2769927978515625 C-13.681425323486337 2.27640617370605 -13.681425323486337 2.27640617370605 -16.82421875 2.2734375 C-18.82555484217619 2.286158543802401 -20.826891092715528 2.298918082889003 -22.828216552734375 2.3132143020629883 C-24.969343219512666 2.3276920861574126 -27.110467095659146 2.3384461152867573 -29.251617431640625 2.348785400390625 C-70.66623884880869 2.571386603962708 -111.90513198305399 4.869926553497322 -153.046142578125 9.780517578125 C-159.3957662149192 10.536657732401267 -165.5979806101339 11.230703401436614 -172 11 C-172 10.669999999999987 -172 10.340000000000003 -172 10 C-148.38956897517807 6.7566943247704785 -124.74077522209075 4.089485831769281 -101 2 C-100.64983825683595 1.968639526367184 -100.64983825683595 1.968639526367184 -98.8778076171875 1.8099365234375 C-66.04048061911135 -1.103036060632121 -32.93275920883764 -0.19524170126430818 0 0 Z " fill="#D6E1DD" transform="translate(481,197)"/>
<path d="M0 0 C0.9900000000000091 0.3300000000000125 1.9799999999999898 0.6599999999999966 3 1 C2 3 2 3 0 5 C1.9799999999999898 5 3.960000000000008 5 6 5 C6 8 6 8 4.77734375 9.4296875 C-4.546423699897161 16.754090804590135 -16.228121355992414 20.101319207859348 -28 19 C-26.41967438674405 15.839348773488098 -23.58771411760722 14.003832371056518 -20.91015625 11.75390625 C-19 10 -19 10 -17 7 C-15.341832159708673 6.312466993049924 -13.675406637139446 5.6443871681305495 -12 5 C-11.670000000000016 4.340000000000003 -11.340000000000003 3.680000000000007 -11 3 C-8.030000000000001 3.3300000000000125 -5.060000000000002 3.6599999999999966 -2 4 C-2 3.009999999999991 -2 2.0200000000000102 -2 1 C-1.3400000000000034 0.6699999999999875 -0.6800000000000068 0.3400000000000034 0 0 Z " fill="#E0E6E5" transform="translate(208,137)"/>
<path d="M0 0 C2.625 -0.625 2.625 -0.625 6 0 C7.761416293426279 2.302323659124113 9.066908108943906 4.7349865916884255 10.46484375 7.2734375 C15.967307345553834 17.04626088345185 24.947699429570662 23.6355637573607 35.67724609375 26.7861328125 C39.486198985300746 27.745347733902634 43.299168390755426 28.615177997066013 47.15478515625 29.365966796875 C48.02796386718751 29.54039306640624 48.90114257812499 29.714819335937506 49.80078125 29.89453125 C50.58622314453126 30.037375488281242 51.37166503906249 30.180219726562484 52.180908203125 30.327392578125 C52.78120849609374 30.549353027343756 53.38150878906251 30.77131347656251 54 31 C54.16499999999999 31.495000000000005 54.16499999999999 31.495000000000005 55 34 C52.43742820459397 34.02710122932862 49.87514634665028 34.04688770720057 47.3125 34.0625 C46.59126953124999 34.070878906250016 45.8700390625 34.0792578125 45.126953125 34.087890625 C35.18709299668686 34.133278114170366 35.18709299668686 34.133278114170366 32.53515625 31.6015625 C32.02855468749999 31.07304687499999 31.521953124999996 30.544531250000006 31 30 C29.167869474749438 29.079751790970022 27.310041571155594 28.209953347242788 25.4375 27.375 C18.06786021894989 23.811067274777713 12.731464827377437 18.731464827377437 7 13 C6.340000000000003 12.669999999999987 5.680000000000007 12.340000000000003 5 12 C4.670000000000002 11.009999999999991 4.340000000000003 10.02000000000001 4 9 C3.010000000000005 8.669999999999987 2.019999999999996 8.340000000000003 1 8 C1.3299999999999983 7.009999999999991 1.6599999999999966 6.02000000000001 2 5 C1.0625 2.3125 1.0625 2.3125 0 0 Z " fill="#E4E8E8" transform="translate(68,142)"/>
<path d="M0 0 C0.5981249999999818 0.22687500000000682 1.1962500000000205 0.45374999999999943 1.8125 0.6875 C0.9667549571327072 13.796548164442669 -5.042451231944028 23.07056133760696 -12.1875 33.6875 C-12.551015624999991 34.26693359375 -12.914531249999982 34.84636718749999 -13.2890625 35.443359375 C-14.205399558252452 36.89083254294323 -15.190958290977221 38.29403066111222 -16.1875 39.6875 C-16.847500000000025 39.6875 -17.507499999999993 39.6875 -18.1875 39.6875 C-10.108095533498727 -1.4440136476426915 -10.108095533498727 -1.4440136476426915 0 0 Z " fill="#FBFCFC" transform="translate(367.1875,73.3125)"/>
<path d="M0 0 C2.9433635179635758 12.30861107512051 -4.944969039533362 22.856576680133287 -11 33 C-11.54914062499995 33.92554687500001 -12.098281250000014 34.85109374999999 -12.6640625 35.8046875 C-13.733935528149118 37.56278294391757 -14.858404909950082 39.28760736492512 -16 41 C-16.33000000000004 41 -16.659999999999968 41 -17 41 C-16.419349481567565 33.67310727399081 -14.815078862943324 26.98073705808133 -12.75 19.9375 C-12.462539062500014 18.900449218749998 -12.175078125000027 17.863398437499995 -11.87890625 16.794921875 C-7.001243460684805 0 -7.001243460684805 0 0 0 Z " fill="#FAFBFB" transform="translate(710,75)"/>
<path d="M0 0 C-0.6599999999999682 0.3300000000000125 -1.3199999999999363 0.6599999999999966 -2 1 C7.899999999999977 0.6699999999999875 17.799999999999955 0.3400000000000034 28 0 C27.66999999999996 0.9900000000000091 27.340000000000032 1.9799999999999898 27 3 C28.649999999999977 3.990000000000009 30.299999999999955 4.97999999999999 32 6 C31.340000000000032 6.3300000000000125 30.680000000000064 6.659999999999997 30 7 C28.97029586791996 6.532322082519528 27.940591735839803 6.064644165039056 26.879684448242188 5.582794189453125 C22.91467465886626 3.7870385683481516 19.2309956319732 3.6010431166156707 14.925048828125 3.67529296875 C14.537607498168882 3.6758770751953023 14.537607498168882 3.6758770751953023 12.576919555664063 3.6788330078125 C10.03667630184384 3.685972940189316 7.497121956057981 3.714140879022665 4.95703125 3.7421875 C3.1830047612246517 3.750331485993655 1.408970898158941 3.756991899644248 -0.3650665283203125 3.762237548828125 C-5.021007248449564 3.77930557168375 -9.676653729776831 3.8135323475915754 -14.33245849609375 3.852294921875 C-21.79437032483952 3.911636718063164 -29.2564324620389 3.9453783938251377 -36.7185001373291 3.9780616760253906 C-39.32210372980671 3.9920087688615524 -41.92555866853081 4.0135991293213635 -44.52909851074219 4.036346435546875 C-46.12380877845078 4.046369818273774 -47.71852004765083 4.056235529362652 -49.313232421875 4.06591796875 C-50.03591308593752 4.074226379394531 -50.758593750000045 4.0825347900390625 -51.503173828125 4.091094970703125 C-54.81909811253752 4.105781016357668 -57.8304020981343 4.034327699547447 -61 3 C-61 3.6599999999999966 -61 4.319999999999993 -61 5 C-59.35000000000002 5 -57.700000000000045 5 -56 5 C-59 7 -59 7 -61.26171875 6.7578125 C-62.06222656249997 6.548984375000003 -62.862734374999945 6.340156250000007 -63.6875 6.125 C-64.49574218750001 5.921328125000002 -65.30398437500003 5.7176562500000045 -66.13671875 5.5078125 C-66.75160156250001 5.340234374999994 -67.36648437500003 5.172656249999989 -68 5 C-67.34000000000003 4.009999999999991 -66.67999999999995 3.0200000000000102 -66 2 C-66.33000000000004 1.3400000000000034 -66.65999999999997 0.6800000000000068 -67 0 C-66.32872070312499 0.030292968749989768 -65.65744140624997 0.06058593750000796 -64.9658203125 0.091796875 C-47.29381657619024 0.8687195959064127 -29.687010727761844 1.1310447620317348 -12 1 C-12 0.6699999999999875 -12 0.3400000000000034 -12 0 C-10.563598285323906 -0.19573608271267062 -9.125804955828585 -0.3812781634601947 -7.6875 -0.5625 C-6.886992187500027 -0.6669140625000125 -6.086484375000055 -0.7713281249999966 -5.26171875 -0.87890625 C-3 -1 -3 -1 0 0 Z " fill="#E2E7E6" transform="translate(837,224)"/>
<path d="M0 0 C0.3299999999999983 0 0.6599999999999966 0 1 0 C2.870231844288199 16.031269239736304 4.54346025532665 31.83708944343322 4 48 C0.37000000000000455 48 -3.260000000000005 48 -7 48 C-6.340000000000003 47.83500000000001 -6.340000000000003 47.83500000000001 -3 47 C-3.0348046874999994 45.70191406250001 -3.069609374999999 44.40382812499999 -3.10546875 43.06640625 C-3.365858816706421 28.49812449708145 -2.0403013298232366 14.415958864087912 0 0 Z " fill="#ECF0EF" transform="translate(119,26)"/>
<path d="M0 0 C0.6599999999999966 0.3299999999999983 1.3199999999999932 0.6599999999999966 2 1 C3.2102969747070915 17.529863681480222 1.320258486582361 30.01961227012646 -8 44 C-8.618750000000006 44.28874999999999 -9.237500000000011 44.577499999999986 -9.875 44.875 C-12 46 -12 46 -13.8125 48.5625 C-16.68710081546331 51.765626622944836 -18.807689466467707 51.75813593075776 -23 52 C-22.133749999999992 51.00999999999999 -21.267500000000013 50.02000000000001 -20.375 49 C-19.24706820542579 47.669145896588816 -18.12213153993929 46.33574832391855 -17 45 C-16.76023437500001 44.72220703125001 -16.76023437500001 44.72220703125001 -15.546875 43.31640625 C-5.43494417670496 30.84317289928717 -0.6987935656659374 16.963941019704862 -1 1 C-0.6700000000000159 0.6700000000000017 -0.3400000000000034 0.3400000000000034 0 0 Z " fill="#E3E7E7" transform="translate(174,110)"/>
<path d="M0 0 C3 0.25 3 0.25 5 2.25 C5.433545769487296 6.657715323120357 5.671300205112971 9.095363647205659 3.4375 12.9375 C0.4734431178334262 15.74955396513242 -2.6102107524116036 17.968411083353985 -6 20.25 C-8.480025931316732 17.76997406868321 -8.296946932414357 16.92167486884418 -8.3125 13.5 C-8.202128500939011 7.624840203829535 -6.787405516516628 0.565617126376381 0 0 Z " fill="#FCFCFC" transform="translate(558,90.75)"/>
<path d="M0 0 C1.1875 2.1875 1.1875 2.1875 2 5 C-0.04624482748454284 10.115612068711414 -4.215788304184684 13.74083398982043 -9.16796875 15.98046875 C-11.092983949655377 16.70618244473735 -13.044961434234665 17.359556331904457 -15 18 C-14.720974036970347 11.442889868803661 -12.132248520615235 7.047099561249013 -8 2 C-4.7720844519469665 -0.15194369870201285 -3.7159919079758765 -0.20086442745815702 0 0 Z " fill="#FCFCFC" transform="translate(940,114)"/>
<path d="M0 0 C0.6599999999999966 0.3299999999999983 1.3199999999999932 0.6599999999999966 2 1 C1.4315234375000045 1.6174609374999989 0.8630468750000091 2.2349218749999977 0.27734375 2.87109375 C-5.475175786099044 9.180618516639512 -10.784389943440715 15.683610567232662 -15.8828125 22.52734375 C-16.498984374999992 23.343320312499998 -17.115156250000013 24.159296874999995 -17.75 25 C-18.301718749999992 25.742500000000007 -18.853437500000013 26.485 -19.421875 27.25 C-21 29 -21 29 -24 30 C-24.99000000000001 29.010000000000005 -25.97999999999999 28.019999999999996 -27 27 C-26.340000000000003 27 -25.680000000000007 27 -25 27 C-24.752499999999998 26.448281250000008 -24.504999999999995 25.8965625 -24.25 25.328125 C-22.75765526200732 22.548632925488604 -20.96327476726364 20.21852930295651 -19 17.75 C-18.298750000000013 16.857968749999998 -17.597499999999997 15.965937499999995 -16.875 15.046875 C-16.256249999999994 14.371406250000007 -15.637499999999989 13.6959375 -15 13 C-14.340000000000003 13 -13.680000000000007 13 -13 13 C-13 12.340000000000003 -13 11.680000000000007 -13 11 C-12.340000000000003 11 -11.680000000000007 11 -11 11 C-11 10.340000000000003 -11 9.680000000000007 -11 9 C-9.218952824016725 7.3982140657552975 -7.37462721990542 5.866180743106582 -5.5 4.375 C-4.479062499999998 3.5577343750000026 -3.4581249999999955 2.740468749999998 -2.40625 1.8984375 C-1.6121875000000045 1.2719531250000031 -0.8181250000000091 0.6454687499999991 0 0 Z " fill="#E3E7E7" transform="translate(181,59)"/>
<path d="M0 0 C0.9899999999999949 0.16499999999999204 0.9899999999999949 0.16499999999999204 6 1 C4.631067961165044 29.36893203883494 4.631067961165044 29.36893203883494 2 32 C0.39998559607823836 21.25704614509678 -0.25991325019845135 10.858598008290755 0 0 Z " fill="#A3CBB3" transform="translate(117,176)"/>
<path d="M0 0 C3.4019728417302346 1.4706320511149968 5.618168717493802 3.372713070939831 8.22265625 5.9921875 C9.008339843750008 6.779804687500004 9.794023437500002 7.567421874999994 10.603515625 8.37890625 C11.414980468750002 9.202617187499996 12.226445312500005 10.026328124999992 13.0625 10.875 C13.877832031249994 11.690976562499998 14.693164062500003 12.506953124999995 15.533203125 13.34765625 C25 22.884462304847972 25 22.884462304847972 25 26 C25.989999999999995 26.33 26.980000000000004 26.659999999999997 28 27 C27.340000000000003 27.33 27.340000000000003 27.33 24 29 C17.812458431018968 23.154801919466692 12.528160468619575 17.365493790585816 7.69140625 10.34765625 C6 8 6 8 4.27734375 6.30859375 C3 5 3 5 3 3 C2.3400000000000034 3 1.6799999999999997 3 1 3 C0.6700000000000017 2.009999999999998 0.3400000000000034 1.0200000000000031 0 0 Z " fill="#E3E7E7" transform="translate(56,60)"/>
<path d="M0 0 C2 2 2 2 2.125 4.75 C0.47770646772600855 9.508847982124848 -2.7175703375565377 11.54484765592997 -7 14 C-10 14.875 -10 14.875 -12 15 C-13 12 -13 12 -12.25 10 C-11.007822193624008 8.012515509798419 -9.648964794000548 6.648964794000548 -8 5 C-6.8125 2.8125 -6.8125 2.8125 -6 1 C-4.680000000000007 1 -3.3599999999999994 1 -2 1 C-1.3400000000000034 0.6700000000000017 -0.6800000000000068 0.3400000000000034 0 0 Z " fill="#99B9AC" transform="translate(94,70)"/>
<path d="M0 0 C0.27843749999999545 0.0721874999999983 0.27843749999999545 0.0721874999999983 1.6875 0.4375 C4 1 4 1 6.625 1.25 C7.408749999999998 1.4975000000000023 8.192499999999995 1.7449999999999974 9 2 C10.3125 4.5625 10.3125 4.5625 11 7 C8.165695467218484 10.254201500600999 6.313922264017862 11.520675303998019 2 12 C1.7524999999999977 11.195625 1.5049999999999955 10.39125 1.25 9.5625 C0 7 0 7 -2.125 6.1875 C-2.7437500000000057 6.125624999999999 -3.3625000000000114 6.063749999999999 -4 6 C-3.6699999999999875 4.68 -3.3400000000000034 3.3599999999999994 -3 2 C-2.009999999999991 2 -1.0200000000000102 2 0 2 C0 1.3400000000000034 0 0.6799999999999997 0 0 Z " fill="#97B6AA" transform="translate(190,39)"/>
</svg>
